<svg xmlns="http://www.w3.org/2000/svg" viewBox="0 0 12.2 4.2"><defs><style>.cls-1{fill:none;stroke:#fff;stroke-linecap:round;stroke-linejoin:round;stroke-width:0.2px;}</style></defs><title>yoplats</title><g id="Layer_2" data-name="Layer 2"><g id="Layer_1-2" data-name="Layer 1"><line class="cls-1" x1="0.6" y1="0.1" x2="0.6" y2="4.1"/><circle class="cls-1" cx="3.6" cy="2.1" r="2"/><path class="cls-1" d="M1.1.1c0,.75-.25,1-.5,1S.1.85.1.1"/><path class="cls-1" d="M11.6,3.1c0,.5,0,1,.25,1s.25-.5.25-.75a3.35,3.35,0,0,0-.25-1.25A3.35,3.35,0,0,1,11.6.85c0-.25,0-.75.25-.75s.25.5.25,1"/><line class="cls-1" x1="6.35" y1="4.1" x2="6.35" y2="0.1"/><path class="cls-1" d="M6.35,2.1c.25,0,.5-.5.5-1s-.25-1-.5-1"/><circle class="cls-1" cx="3.6" cy="2.1" r="1.5"/><polyline class="cls-1" points="7.6 0.1 7.6 4.1 8.1 4.1"/><polyline class="cls-1" points="8.6 4.1 9.1 0.1 9.6 4.1"/><line class="cls-1" x1="8.85" y1="3.1" x2="9.35" y2="3.1"/><line class="cls-1" x1="10.1" y1="0.1" x2="11.1" y2="0.1"/><line class="cls-1" x1="10.6" y1="4.1" x2="10.6" y2="0.1"/></g></g></svg>