<svg xmlns="http://www.w3.org/2000/svg" viewBox="0 0 12.17 4.17"><defs><style>.cls-1{fill:#fff;}</style></defs><title>yoplats_pen</title><g id="Layer_2" data-name="Layer 2"><g id="Layer_1-2" data-name="Layer 1"><path class="cls-1" d="M.53.1h0Z"/><polygon class="cls-1" points="0.56 0.2 0.55 0.2 0.56 0.21 0.56 0.2"/><path class="cls-1" d="M.56.29s0,0,0,0h0S.56.28.56.29Z"/><path class="cls-1" d="M.52.34s0,0,0,0h0Z"/><path class="cls-1" d="M.52.33s0,0,0,0Z"/><path class="cls-1" d="M.52.37h0S.52.38.52.37Z"/><path class="cls-1" d="M.53.39h0Z"/><path class="cls-1" d="M.53.36h0s0,0,0,0S.53.37.53.36Z"/><path class="cls-1" d="M.53.36s0,0,0,0S.53.33.53.36Z"/><path class="cls-1" d="M.57.29h0S.57.3.57.29Z"/><path class="cls-1" d="M.51.45h0Z"/><path class="cls-1" d="M.53.45h0S.53.45.53.45Z"/><polygon class="cls-1" points="0.56 0.39 0.54 0.36 0.56 0.39 0.56 0.39"/><polygon class="cls-1" points="0.51 0.51 0.5 0.5 0.52 0.51 0.51 0.51"/><path class="cls-1" d="M.51.54h0v0A0,0,0,0,1,.51.54Z"/><path class="cls-1" d="M.52.58h0Z"/><path class="cls-1" d="M.53.48h0Z"/><path class="cls-1" d="M.53.49h0Z"/><path class="cls-1" d="M.53.48h0Z"/><path class="cls-1" d="M.55.42s0,0,0,0Z"/><path class="cls-1" d="M.55.48h0Z"/><polygon class="cls-1" points="0.55 0.48 0.55 0.48 0.55 0.48 0.55 0.48"/><path class="cls-1" d="M.53.56a0,0,0,0,1,0,0v0Z"/><path class="cls-1" d="M.53.52h0Z"/><polygon class="cls-1" points="0.53 0.65 0.54 0.65 0.53 0.65 0.53 0.65"/><path class="cls-1" d="M.54.55a0,0,0,0,0,0,0v0Z"/><path class="cls-1" d="M.52.6h0Z"/><path class="cls-1" d="M.53.53h0Z"/><polygon class="cls-1" points="0.53 0.53 0.54 0.54 0.53 0.53 0.53 0.53"/><path class="cls-1" d="M.6.68a0,0,0,0,1,0,0s0,0-.06,0v0s0,0,0,0,0,0,0,0,0,0,0,0v0Z"/><path class="cls-1" d="M.54.63h0v0h0v0Z"/><path class="cls-1" d="M.54.59s0,0,0,0,0,0,0,0,0,0,0,0v0h0v0A.09.09,0,0,0,.54.59Z"/><path class="cls-1" d="M.59.45h0Z"/><path class="cls-1" d="M.58.46h0s0,0,0,0h0l0,0Z"/><path class="cls-1" d="M.56.53v0h0S.57.53.56.53Z"/><polygon class="cls-1" points="0.53 0.66 0.52 0.65 0.53 0.67 0.53 0.66"/><polygon class="cls-1" points="0.53 0.69 0.52 0.69 0.53 0.69 0.53 0.69"/><path class="cls-1" d="M.65,2.44h0Z"/><path class="cls-1" d="M.65,2.39h0Z"/><path class="cls-1" d="M.53,1.45s0,0,0,0h0A0,0,0,0,1,.53,1.45Z"/><polygon class="cls-1" points="0.6 1.97 0.6 1.97 0.59 1.96 0.6 1.97"/><path class="cls-1" d="M.64,2h0Z"/><path class="cls-1" d="M.66,2.71h0S.67,2.71.66,2.71Z"/><path class="cls-1" d="M.53,1V1S.54,1,.53,1Z"/><path class="cls-1" d="M.54,2.42h0Z"/><path class="cls-1" d="M.53,1.05h0a.06.06,0,0,1,0,0A0,0,0,0,0,.53,1.05Z"/><path class="cls-1" d="M.66,3.72h0Z"/><path class="cls-1" d="M.55,4h0A0,0,0,0,0,.55,4Z"/><path class="cls-1" d="M.53.81Z"/><path class="cls-1" d="M.57.78h0Z"/><path class="cls-1" d="M.59,1.12h0Z"/><path class="cls-1" d="M.53.8h0Z"/><path class="cls-1" d="M.53.8h0S.52.8.53.8Z"/><path class="cls-1" d="M.53.82h0Z"/><path class="cls-1" d="M.63,3.18h0S.63,3.19.63,3.18Z"/><polygon class="cls-1" points="0.64 1.62 0.64 1.62 0.64 1.62 0.64 1.62"/><path class="cls-1" d="M.65,1.64s0,0,0,0h0Z"/><path class="cls-1" d="M.66,2.56v0s0,0,0,0,0-.06,0-.07h0s0,0,0,0h0v0h0v0h0l0,0h0v0s0,0,0,0,0,0,0-.05v0s0,0,0,0,0,0,0,0a0,0,0,0,0,0,0s0,0,0,0h0l0,0s0,0,0,0,0,0,0,0a.09.09,0,0,0,0-.06s0,0,0,0h0s0,0,0,0,0,0,0-.06h0l0,0V2s0,0,0,0h0V2H.64v0A.2.2,0,0,1,.6,1.84h0s0,0,0,.05h0v0s0,0,0,0,0,0,0,0,0,0,0,0,0,0,0,0h0s0,0,0,0h0s0-.09,0-.09h0L.57,1.61s.06,0,.07,0a0,0,0,0,0,0,0h0l0,0s0,0,0,0h0l0,0h0s0,0,0,0h0s0,0,0-.06,0,0,0,0-.07,0-.08-.06h0v0l.08.07s0,0,0,0,0,0,0,0v0s0,0,0,0l0,0a.05.05,0,0,1,0-.06h0s0,0,0,0h0s0,0,0,0,0,0,0,0H.56l0,0s0,0,0,0h0s0,0,0,0,0,0,0,0,0,0,0,0,0,0,0,0h0s0,0,0-.08,0,0,0,0V1s0,0,0,0,0,0,0,0,0,0,0,0S.57,1,.56,1s0,0,0,0,0,0,0-.08,0,0,0,0,0,0,0,0v0a0,0,0,0,1,0,0S.59.86.6.82h0s0,0,0,0a.07.07,0,0,1,0-.05h0s0,0,0,0,0,0,0,0h0s0,0,0-.05l0,0s0,0,0,0,0,0,0,0,0,0,0,0h0s0,0,0,0h0s0,0,0,0v0a0,0,0,0,0,0,0s0,0,0,0V1h0s0,.06,0,.1a.07.07,0,0,1,0,0h0s0,0,0,0,0,.06,0,.09h0a.17.17,0,0,0,0,.05h0s0,0,0,.07,0,0,0,0,0,.07,0,.1a0,0,0,0,1,0,0h0v0h0s0,0,0,0,0,0,0,0h0a0,0,0,0,0,0,0h0l0,0s0,0,0,0,0,0,0,0h0s0,0,0,0,0,.1,0,.15,0,0,0,0h0s0,0,0,.06h0s0,0,0,0h0s0,0,0,0,0,0,0,0,0,0,0,0S.54,2,.56,2s0,0,0,0a.25.25,0,0,0,0,0h0s0,0,0,0h0s0,0,0,.05h0s0,0,0,.05h0s0,0,0,0h0s0,0,0,0,0,0,0,0,0,0,0,.07,0,0,0,0,0,0,0,.06h0s0,0,0,0,0,.08,0,.08v0h0a0,0,0,0,0,0,0h0a.07.07,0,0,0,0,.07h0s0,.05,0,.09h0s0,.1,0,.11v0s0,0,0,0,0,0,0,0h0s0,0,0,0,0,.13,0,.2h0v0s0,0,0,0,0,0,0,0,0,0,0,0h0s0,0,0,0h0s0,0,0,0v0h0s0,0,0,0,0,.1,0,.11a.09.09,0,0,1,0,.05s0,0,0,0,0,0,0,0,0,.05,0,0,0,0,0,0,0,.08,0,.12h0l0,0s0,0,0,0h0c0,.09,0,.18,0,.27s0,0,0,0h0l0,0s0,0,0,0h0s0,0,.07,0,0,0,0-.07h0s0,0,0,0h0a.54.54,0,0,1,0-.12h0v0s0,0,0,0,0-.08,0-.09,0,0,0,0h0l0,0h0s0,0,0,0v0a.88.88,0,0,0,0-.15h0s0,0,0-.06h0a0,0,0,0,1,0,0s0,0,0,0,0,0,0,0h0a0,0,0,0,1,0,0s0,0,0,0,0-.06,0-.08,0,0,0,0,0,0,0,0,0,0,0-.05h0s0,0,0,0,0,0,0,0v0s0,0,0-.06v0s0,0,0,0,0,0,0,.05,0,0,0,0,0,0,0-.05h0v0h0s0,0,0,0,0,0,0,0,0,0,0-.07,0,0,0,0V3s0,0,0,0,0,0,0,0h0s0,0,0,0h0v0h0a0,0,0,0,1,0,0s0,0,0,0,0,0,0,0,0,0,0,0h0s0,0,0,0h0l0,0h0v0s0,0,0,0v0h0s0,0,0-.07h0s0,0,0-.07h0s0,0,0,0,0,0,0,0,0,0,0-.05S.65,2.55.66,2.56Zm0-.25s0,0,0,0S.64,2.32.65,2.31Zm0-.38s0,0,0,0A0,0,0,0,1,.62,1.93ZM.54.88h0S.53.89.54.88Zm0,0h0s0,0,0,0S.54.87.54.86Zm0,2.39h0S.55,3.25.55,3.25Z"/><path class="cls-1" d="M.64,2h0Z"/><polygon class="cls-1" points="0.66 2.71 0.66 2.71 0.66 2.71 0.66 2.71"/><path class="cls-1" d="M.64,1.21h0Z"/><path class="cls-1" d="M.52.74h0Z"/><path class="cls-1" d="M.59.62h0S.59.63.59.62Z"/><path class="cls-1" d="M.56.73s0,0,0,0h0S.56.72.56.73Z"/><path class="cls-1" d="M.56.71h0S.56.7.56.71Z"/><path class="cls-1" d="M.53.83h0S.54.86.53.83Z"/><polygon class="cls-1" points="0.59 0.72 0.58 0.73 0.59 0.73 0.59 0.72"/><path class="cls-1" d="M.58.8v0h0S.58.8.58.8Z"/><path class="cls-1" d="M.58.78h0Z"/><polygon class="cls-1" points="0.6 0.74 0.59 0.75 0.59 0.76 0.6 0.74"/><path class="cls-1" d="M.58,1V1h0Z"/><path class="cls-1" d="M.62.92h0Z"/><path class="cls-1" d="M.62,1s0,0,0,0S.62,1,.62,1Z"/><polygon class="cls-1" points="0.6 1.23 0.6 1.23 0.57 1.23 0.6 1.23"/><path class="cls-1" d="M.66,1.47s0,0,0,0,0,0,0,0S.64,1.47.66,1.47Z"/><path class="cls-1" d="M.64,1.45h0Z"/><polygon class="cls-1" points="0.53 4.06 0.53 4.07 0.54 4.07 0.53 4.06"/><polygon class="cls-1" points="0.55 4.08 0.54 4.09 0.55 4.1 0.55 4.08"/><path class="cls-1" d="M.68,2.27h0Z"/><polygon class="cls-1" points="0.67 2.45 0.67 2.45 0.65 2.46 0.67 2.45"/><path class="cls-1" d="M.69,2.6s0,0,0,0S.67,2.61.69,2.6Z"/><path class="cls-1" d="M3.58,0s0,0,0,0S3.58,0,3.58,0Z"/><polygon class="cls-1" points="3.27 0.09 3.27 0.08 3.23 0.1 3.27 0.09"/><path class="cls-1" d="M3,.15s.1,0,.15,0h0l0,0Z"/><path class="cls-1" d="M2.82.17h0Z"/><path class="cls-1" d="M2.85.16Z"/><path class="cls-1" d="M2.72.22l0,0h0S2.7.22,2.72.22Z"/><path class="cls-1" d="M2.69.25h0Z"/><path class="cls-1" d="M2.75.21l0,0s0,0,0,0Z"/><path class="cls-1" d="M2.77.2s.05,0,0,0S2.84.17,2.77.2Z"/><path class="cls-1" d="M3,.17H3Z"/><path class="cls-1" d="M2.49.33h0l0,0Z"/><path class="cls-1" d="M2.51.34l0,0Z"/><polygon class="cls-1" points="2.69 0.27 2.75 0.23 2.68 0.28 2.69 0.27"/><polygon class="cls-1" points="2.35 0.43 2.36 0.41 2.33 0.45 2.35 0.43"/><path class="cls-1" d="M2.26.5s0,0,0,0L2.19.56Z"/><path class="cls-1" d="M2.16.59l0,0Z"/><path class="cls-1" d="M2.41.41h0Z"/><path class="cls-1" d="M2.4.42h0l0,0Z"/><path class="cls-1" d="M2.42.41h0Z"/><path class="cls-1" d="M2.58.31s-.06.05,0,0S2.56.34,2.58.31Z"/><path class="cls-1" d="M2.44.4l0,0s0,0,0,0Z"/><polygon class="cls-1" points="2.42 0.42 2.44 0.4 2.43 0.41 2.42 0.42"/><path class="cls-1" d="M2.23.55l0,.05L2.25.54S2.25.53,2.23.55Z"/><path class="cls-1" d="M2.31.48h0Z"/><polygon class="cls-1" points="2.01 0.78 2.02 0.78 2.01 0.78 2.01 0.78"/><path class="cls-1" d="M2.25.54l0,0,0,0Z"/><path class="cls-1" d="M2.12.65l0,0Z"/><path class="cls-1" d="M2.3.49h0Z"/><path class="cls-1" d="M2.3.49l0,0,0,0Z"/><path class="cls-1" d="M2,.88A.12.12,0,0,1,2.08.8s0,0-.06,0,0,0,0,0,.08-.07.06,0A.2.2,0,0,1,2,.85S2,.92,2,.92l0,0S2,.89,2,.88Z"/><path class="cls-1" d="M2.08.71v0L2,.74l0,0L2.08.71Z"/><path class="cls-1" d="M2.15.63s0,.06,0,0,0,0,0-.06,0,0,0,0l0,0,0,0h0s0,0,0,0h0L2.09.7Z"/><path class="cls-1" d="M2.54.39h0Z"/><path class="cls-1" d="M2.51.41l0,0s0,0,0,0,0,0,0,0h0l-.08,0Z"/><path class="cls-1" d="M2.32.51,2.27.57l0,0h0S2.32.52,2.32.51Z"/><polygon class="cls-1" points="2 0.78 2 0.77 1.98 0.81 2 0.78"/><polygon class="cls-1" points="1.94 0.86 1.94 0.85 1.93 0.88 1.94 0.86"/><path class="cls-1" d="M4.58,3.76h0Z"/><path class="cls-1" d="M4.44,3.84h0S4.45,3.83,4.44,3.84Z"/><path class="cls-1" d="M1.84,3.18s0,.07,0,.06h0Z"/><polygon class="cls-1" points="3.2 4.05 3.19 4.05 3.17 4.05 3.2 4.05"/><path class="cls-1" d="M3.23,4h0Z"/><path class="cls-1" d="M5.18,3.19v0S5.18,3.18,5.18,3.19Z"/><path class="cls-1" d="M1.56,1.8l0,.07S1.56,1.81,1.56,1.8Z"/><path class="cls-1" d="M4.58,3.9v0Z"/><path class="cls-1" d="M1.53,2h0a.34.34,0,0,1,0-.07A.16.16,0,0,0,1.53,2Z"/><path class="cls-1" d="M4.68.49h0Z"/><path class="cls-1" d="M3.87.07h0Z"/><path class="cls-1" d="M1.73,1.21Z"/><path class="cls-1" d="M1.81,1.13h0Z"/><path class="cls-1" d="M1.6,2.17h0S1.6,2.17,1.6,2.17Z"/><path class="cls-1" d="M1.75,1.18v0Z"/><path class="cls-1" d="M1.74,1.18v0Z"/><path class="cls-1" d="M1.72,1.23l0,0h0Z"/><path class="cls-1" d="M5.54,1.84h0S5.54,1.82,5.54,1.84Z"/><polygon class="cls-1" points="2.27 3.52 2.27 3.52 2.27 3.52 2.27 3.52"/><path class="cls-1" d="M2.33,3.57a.11.11,0,0,1-.06,0v0Z"/><path class="cls-1" d="M4.88,3.54l0,0c0-.05.07-.08,0-.06s-.15.13-.13.16h0c-.06,0,0,0-.1.09s0,0,0,0l-.05,0s0,0,0,0l-.09,0h0l0,0s0,0,0,0l0,0s0,0,0,0,0,0-.15,0l0,0a.5.5,0,0,0-.13,0s.12,0,.07,0L4.17,4s0,0-.07,0V4L4,4S4,4,4,4s.06,0,0,0a1.2,1.2,0,0,0-.18,0s0,0,0,0h0s0,0,0,0,0,0-.05,0-.11,0-.17,0,0,0,0,0H3.33L3.27,4s0,0-.07,0l0,0H3.15s0,0,0,0h0s0,0,0,0l0,0s0,0,0,0h0V4h0l-.1,0a.77.77,0,0,1-.27,0s0,0,0,0,.09,0,.15.05,0,0,0,0l-.11,0s0,0,0,0-.08,0-.13,0,0,0,.06,0-.09,0-.13-.05h0s-.09-.06-.07-.05h0c-.08,0-.22-.16-.25-.15h0l-.17-.06s0-.07.08,0L2.2,3.46s0,0,0,0a.68.68,0,0,0-.05-.1s0,0,0,0,0,0,0,0L2,3.33s0,0,0,0L2,3.22l0,0c-.06-.08-.09-.06-.14-.14s0,0,0,0a.37.37,0,0,1-.16-.13v0l0-.06L1.88,3s0,0,0-.06,0,0,0,0l0-.11s-.05-.08-.06-.07l.07.12s-.08,0-.11-.14,0,0,0,0a.3.3,0,0,1,0-.09l0,0s-.05-.07,0-.13,0-.06,0-.07-.07.06-.09,0a.62.62,0,0,1,0-.14s0,0,.05,0l0,0s0,0,0,0,0-.1,0,0a.47.47,0,0,1,0-.1s0,0,0-.09h0a2.07,2.07,0,0,1,0-.24s0-.05,0,0a.16.16,0,0,1,0-.05c0-.05,0,.06,0,0s0-.07,0-.11,0,.09,0,.13,0-.07,0-.17,0,0,0,0,0-.13,0-.24,0,0,0,0,0,.09,0,.13l0,0a.27.27,0,0,1,0,.08,2.32,2.32,0,0,1,.13-.32s0-.05,0,0v0s0-.07,0,0a.42.42,0,0,1,.06-.15h0a.2.2,0,0,0,0,.05s.07-.08.07-.11l0,0A.45.45,0,0,1,1.92.91l0,0s-.08.13,0,.09,0,.06-.09.1,0,0,0,0h0l0,0a1,1,0,0,1,0,.12s0,0,0,0v0s0,.07,0,0l0,.06a.4.4,0,0,0,0,.11s0,.08,0,0l0,.1h0c0,.09,0,.2,0,.31a.74.74,0,0,1,0,.12h0a.67.67,0,0,0,0,.14s0,.2,0,.28h0a1.06,1.06,0,0,0,0,.16h0l.06.21a.09.09,0,0,1,0,0c0,.11.1.19.13.28l0,0h0v0l0,.06v0h0s0,0,0,0l0,0s0,.05,0,.09.09.1.12.09h0l.06.06v0l.06,0s0,0,0,0l.13.09h0s.07,0,.08,0a1.83,1.83,0,0,0,.4.26s.06,0,.08,0,0,0,0,0,.11.06.18.05,0,0,0,0H3c.08,0,.1,0,.11,0a.11.11,0,0,0,.09,0s0,0,0,0,.18,0,.18,0h.17s.05,0,.11,0h.16s.11,0,.17,0H4s.11,0,.15,0h0c.1,0,0,0,.08,0s0,0,0,0A1.89,1.89,0,0,1,4.42,4s0,0,0,0,.14,0,.17-.08h0a1,1,0,0,0,.12-.1c.05,0,.19-.16.21-.14L5,3.56H5a.28.28,0,0,0,.08-.11s0,0,0,0a.44.44,0,0,0,.13-.18h0A1.19,1.19,0,0,0,5.41,3a0,0,0,0,1,0,0c0-.12.16-.27.13-.33a.73.73,0,0,0,0-.08c0,.1,0,0,0,0s0-.1,0-.05h0s0-.13.06-.12a2.32,2.32,0,0,0,0-.62l0,0V1.83s0,0,0,0,0-.08,0-.08,0,0,0,0v0h0a.39.39,0,0,1,0-.09s0,0,0,0v0l0-.09v0s0-.08,0,0a1.28,1.28,0,0,0-.12-.34L5.31,1s0,0,0,0,0-.09-.06-.15S5.12.72,5.14.79s0,0,0,0A2.88,2.88,0,0,0,4.85.47s0,0,0,0l0-.06s0,0-.07,0,0,0,0,0A2.42,2.42,0,0,0,3.92.07s0,0,0,0,0,0,0,0l-.11,0s-.13,0-.14,0h0s.07,0,.06.07.14,0,.23,0,0,0,0,0a.15.15,0,0,1,.1,0h0a1.34,1.34,0,0,1,.33.13v0l0,0s-.08,0,0,0,.21.11.22.15,0,0,0,0h0s0,0,0,0l0,0a1,1,0,0,0,.11.08l0,0a2.59,2.59,0,0,1,.34.3h0c.08.07,0,.07.12.16h0A.23.23,0,0,1,5.25,1s0,.05,0,0,0,0,.09.1v0a.2.2,0,0,1,.05.07s0,0,0,0c0,.11.09.16.08.22s0-.1,0-.08,0,0,0,.07,0,.07,0,.17v0s0,.07,0,.11,0,.06,0,.06l0-.09a.56.56,0,0,1,0,.18l0,0s0,0,0,.07,0-.11,0-.16,0,.1,0,.07,0,.09,0,.16h0a.26.26,0,0,1,0,.05l0,0a.58.58,0,0,1,0,.15c0-.11,0,0,0-.07,0,.13,0,.07,0,.22,0,0,0-.07,0,0a.24.24,0,0,1,0,.08c0,.1,0,0,0,0s0,0,0,.09h0c0,.11,0,0,0,.13v0h0a.3.3,0,0,1,0,.12s0,0,0,.06,0,0,0,0a.07.07,0,0,1,0-.06v0a.53.53,0,0,0,0,.11v0a.64.64,0,0,1,0,.1s0,0,0,0l0,.06s0,0,0-.05l0,.09s0,0,0,0,0,.12-.09.17v0L5,3.37l0,0s.06,0,0,.05,0,0,0,0a.36.36,0,0,1-.11.12Zm-.64.39.05,0S4.26,3.93,4.23,3.93ZM3.1,4h0ZM1.65,1.43h0S1.64,1.45,1.65,1.43Zm0-.07h0v0S1.67,1.38,1.68,1.36Zm3.9.25h0S5.57,1.6,5.58,1.61Z"/><path class="cls-1" d="M3.23,4h0S3.24,4,3.23,4Z"/><polygon class="cls-1" points="5.18 3.19 5.18 3.19 5.18 3.19 5.18 3.19"/><path class="cls-1" d="M1.67,2.43a.1.1,0,0,1,0,0S1.68,2.45,1.67,2.43Z"/><path class="cls-1" d="M1.83,1l0,0,0,0S1.82,1,1.83,1Z"/><path class="cls-1" d="M2.13.74v0h0S2.11.76,2.13.74Z"/><path class="cls-1" d="M1.89,1s0,0,0-.05h0S1.9,1,1.89,1Z"/><path class="cls-1" d="M1.93.94l0,0Z"/><path class="cls-1" d="M1.71,1.27s0,0,0,0S1.68,1.35,1.71,1.27Z"/><polygon class="cls-1" points="1.93 0.99 1.91 0.99 1.91 1.01 1.93 0.99"/><path class="cls-1" d="M1.8,1.2l0,0h0Z"/><path class="cls-1" d="M1.82,1.14l0,0Z"/><polygon class="cls-1" points="1.9 1.05 1.89 1.06 1.87 1.09 1.9 1.05"/><path class="cls-1" d="M1.62,1.71v.05s0,0,0,0S1.62,1.7,1.62,1.71Z"/><path class="cls-1" d="M1.69,1.56l0,0h0Z"/><path class="cls-1" d="M1.66,1.71s0,.08,0,0S1.67,1.66,1.66,1.71Z"/><polygon class="cls-1" points="1.65 2.52 1.64 2.51 1.62 2.52 1.65 2.52"/><path class="cls-1" d="M2,3.15c0-.06,0,0,0-.06s0,0,0,0S2,3.18,2,3.15Z"/><path class="cls-1" d="M1.94,3.13h0Z"/><polygon class="cls-1" points="3.71 0.04 3.67 0.03 3.7 0.04 3.71 0.04"/><path class="cls-1" d="M3.63.06V0h0Z"/><path class="cls-1" d="M4.12,3.93h0Z"/><polygon class="cls-1" points="4.62 3.73 4.61 3.73 4.63 3.73 4.62 3.73"/><path class="cls-1" d="M5,3.43l0,0S5,3.44,5,3.43Z"/><path class="cls-1" d="M0,.1H0Z"/><polygon class="cls-1" points="0.06 0.13 0.05 0.13 0.06 0.13 0.06 0.13"/><path class="cls-1" d="M.06.16s0,0,0,0h0S.06.15.06.16Z"/><path class="cls-1" d="M0,.17s0,0,0,0H0Z"/><path class="cls-1" d="M0,.17Z"/><path class="cls-1" d="M0,.18H0Z"/><path class="cls-1" d="M0,.19H0Z"/><path class="cls-1" d="M0,.18H0Z"/><path class="cls-1" d="M0,.18H0Z"/><path class="cls-1" d="M.08.16h0S.07.16.08.16Z"/><path class="cls-1" d="M0,.21H0Z"/><path class="cls-1" d="M0,.21H0Z"/><polygon class="cls-1" points="0.06 0.19 0.04 0.18 0.06 0.19 0.06 0.19"/><polygon class="cls-1" points="0.01 0.23 0.01 0.22 0.02 0.23 0.01 0.23"/><path class="cls-1" d="M0,.24H0A0,0,0,0,1,0,.24Z"/><path class="cls-1" d="M0,.25H0Z"/><polygon class="cls-1" points="0.04 0.22 0.02 0.22 0.04 0.22 0.04 0.22"/><polygon class="cls-1" points="0.04 0.22 0.04 0.22 0.03 0.22 0.04 0.22"/><path class="cls-1" d="M0,.22H0Z"/><path class="cls-1" d="M0,.2H0Z"/><polygon class="cls-1" points="0.05 0.21 0.05 0.21 0.04 0.21 0.05 0.21"/><polygon class="cls-1" points="0.05 0.22 0.05 0.21 0.05 0.22 0.05 0.22"/><path class="cls-1" d="M0,.24H0Z"/><path class="cls-1" d="M0,.23H0Z"/><polygon class="cls-1" points="0.04 0.27 0.04 0.27 0.04 0.27 0.04 0.27"/><polygon class="cls-1" points="0.04 0.24 0.04 0.23 0.04 0.24 0.04 0.24"/><path class="cls-1" d="M0,.26H0Z"/><path class="cls-1" d="M0,.23H0Z"/><polygon class="cls-1" points="0.03 0.23 0.04 0.23 0.04 0.23 0.03 0.23"/><path class="cls-1" d="M.11.27s0,0,0,0h0s0,0,0,0h0Z"/><path class="cls-1" d="M0,.26H0Z"/><path class="cls-1" d="M0,.25h0s0,0,0,0H0Z"/><path class="cls-1" d="M.09.21h0Z"/><path class="cls-1" d="M.09.21h0Z"/><ellipse class="cls-1" cx="0.06" cy="0.23" ry="0.01" transform="translate(-0.17 0.25) rotate(-78.53)"/><polygon class="cls-1" points="0.03 0.27 0.02 0.27 0.04 0.28 0.03 0.27"/><polygon class="cls-1" points="0.04 0.28 0.03 0.28 0.03 0.28 0.04 0.28"/><path class="cls-1" d="M.26.78h0Z"/><path class="cls-1" d="M.26.76h0Z"/><path class="cls-1" d="M.06.52h0Z"/><polygon class="cls-1" points="0.16 0.67 0.17 0.67 0.16 0.67 0.16 0.67"/><path class="cls-1" d="M.21.66h0Z"/><path class="cls-1" d="M.31.84h0Z"/><path class="cls-1" d="M0,.38H0S.06.38,0,.38Z"/><path class="cls-1" d="M.16.82h0Z"/><path class="cls-1" d="M0,.4H0S0,.4,0,.4Z"/><path class="cls-1" d="M.5,1h0Z"/><path class="cls-1" d="M.56,1.14h0Z"/><path class="cls-1" d="M0,.32Z"/><path class="cls-1" d="M.08.31h0Z"/><path class="cls-1" d="M.11.41h0Z"/><path class="cls-1" d="M0,.32H0Z"/><path class="cls-1" d="M0,.32H0Z"/><polygon class="cls-1" points="0.04 0.33 0.04 0.32 0.03 0.32 0.04 0.33"/><path class="cls-1" d="M.36,1h0Z"/><polygon class="cls-1" points="0.18 0.55 0.18 0.55 0.18 0.55 0.18 0.55"/><path class="cls-1" d="M.19.56h0Z"/><path class="cls-1" d="M.28.81h0s0,0,0,0h0s0,0,0,0h0s0,0,0,0h0l0,0,0,0h0s0,0,0,0h0s0,0,0,0h0s0,0,0,0h0s0,0,0,0h0s0,0,0,0h0s0,0,0,0h0s0,0,0,0h0a0,0,0,0,0,0,0h0a0,0,0,0,0,0,0h0l0,0h0s0,0,0,0h0s0,0,0,0h0s0,0,0,0H.08l0,0h0s0,0,0,0h0s0,0,0,0h0s0,0,0,0H.07s0,0,0,0,0,0,0,0h0s0,0,0,0h0s0,0,0,0h0s0,0,0,0h0s0,0,0,0H0s0,0,0,0H0s0,0,0,0H0s0,0,0,0,0,0,0,0H0s0,0,0,0,0,0,0,0h0s0,0,0,0h0s0,0,0,0h0s0,0,0,0h0s0,0,0,0h0s0,0,0,0,0,0,0,.05,0,0,0,0h0s0,0,0,0h0s0,0,0,0h0s0,0,0,0h0s0,0,0,0h0s0,0,0,0h0s0,0,0,0h0l0,0h0s0,0,0,0h0s0,0,0,0h0s0,0,0,0h0s0,0,0,0h0s0,0,0,0h0s0,0,0,0h0s0,0,0,0h0s0,0,0,0,0,0,0,0h0s0,0,0,0,0,0,0,.06h0s0,0,0,0h0s0,0,0,0,0,0,0,0h0s0,0,0,0,0,0,0,0,0,0,0,0,0,0,0,0v0s0,0,0,0h0s.06,0,.09,0,0,0,0,0v0s0,0,0,0h0s0,0,0-.07,0,0,0,0,0,0,0,0h0l0,0h0s0,0,0,0,0,0,0,0h0a.06.06,0,0,1,0,0h0s0,0,0,0h0V1l0,0h0l0,0s0,0,0,0,0,0,0,0h0s0,0,0,0h0s0,0,0,0h0s0,0,0,0h0s0,0,0,0,0,0,0,0,0,0,0,0,0,0,0,0h0s0,0,0,0,0,0,0,0,0,0,0,0h0s0,0,0,0h0s0,0,0,0h0s0,0,0,0h0s0,0,0,0,0,0,0,0h0s0,0,0,0h0s0,0,0,0h0s0,0,0,0h0s0,0,0,0,0,0,0,0Zm0-.06h0S.25.75.25.75ZM.18.65h0ZM0,.34H0Zm0,0h0ZM.32,1h0Z"/><path class="cls-1" d="M.2.66h0Z"/><polygon class="cls-1" points="0.31 0.84 0.31 0.84 0.31 0.84 0.31 0.84"/><path class="cls-1" d="M.16.43h0Z"/><polygon class="cls-1" points="0.03 0.3 0.03 0.3 0.03 0.3 0.03 0.3"/><polygon class="cls-1" points="0.1 0.26 0.1 0.26 0.09 0.26 0.1 0.26"/><path class="cls-1" d="M.07.29s0,0,0,0h0S.06.29.07.29Z"/><path class="cls-1" d="M.07.29h0S.07.29.07.29Z"/><path class="cls-1" d="M0,.33H0Z"/><polygon class="cls-1" points="0.1 0.29 0.09 0.29 0.1 0.29 0.1 0.29"/><polygon class="cls-1" points="0.09 0.31 0.1 0.31 0.09 0.31 0.09 0.31"/><path class="cls-1" d="M.09.31h0Z"/><polygon class="cls-1" points="0.1 0.3 0.1 0.3 0.1 0.3 0.1 0.3"/><polygon class="cls-1" points="0.09 0.37 0.1 0.37 0.1 0.37 0.09 0.37"/><polygon class="cls-1" points="0.13 0.35 0.12 0.35 0.13 0.35 0.13 0.35"/><path class="cls-1" d="M.13.36h0Z"/><polygon class="cls-1" points="0.12 0.45 0.12 0.44 0.1 0.45 0.12 0.45"/><path class="cls-1" d="M.19.5s0,0,0,0h0Z"/><path class="cls-1" d="M.17.5h0Z"/><polygon class="cls-1" points="0.58 1.16 0.58 1.16 0.58 1.15 0.58 1.16"/><polygon class="cls-1" points="0.59 1.14 0.59 1.16 0.59 1.14 0.59 1.14"/><polygon class="cls-1" points="0.27 0.72 0.27 0.73 0.27 0.73 0.27 0.72"/><polygon class="cls-1" points="0.28 0.78 0.28 0.78 0.27 0.78 0.28 0.78"/><path class="cls-1" d="M.32.8h0S.3.81.32.8Z"/><path class="cls-1" d="M1,.1H1Z"/><polygon class="cls-1" points="1.06 0.13 1.05 0.13 1.06 0.13 1.06 0.13"/><path class="cls-1" d="M1.05.16s0,0,0,0H1S1.06.15,1.05.16Z"/><path class="cls-1" d="M1,.17s0,0,0,0H1Z"/><path class="cls-1" d="M1,.17Z"/><path class="cls-1" d="M1,.18H1Z"/><path class="cls-1" d="M1,.18H1Z"/><path class="cls-1" d="M1,.18H1Z"/><path class="cls-1" d="M1,.18H1Z"/><path class="cls-1" d="M1.07.16h0S1.07.16,1.07.16Z"/><path class="cls-1" d="M1,.2H1Z"/><path class="cls-1" d="M1,.2H1Z"/><polygon class="cls-1" points="1.05 0.18 1.04 0.18 1.05 0.19 1.05 0.18"/><polygon class="cls-1" points="1.01 0.22 1 0.22 1.01 0.22 1.01 0.22"/><path class="cls-1" d="M1,.23H1Z"/><path class="cls-1" d="M1,.24H1Z"/><polygon class="cls-1" points="1.03 0.21 1.02 0.22 1.03 0.21 1.03 0.21"/><polygon class="cls-1" points="1.03 0.21 1.03 0.21 1.03 0.22 1.03 0.21"/><path class="cls-1" d="M1,.21H1Z"/><path class="cls-1" d="M1,.2H1Z"/><polygon class="cls-1" points="1.04 0.21 1.05 0.21 1.04 0.21 1.04 0.21"/><polygon class="cls-1" points="1.05 0.21 1.04 0.21 1.04 0.21 1.05 0.21"/><polygon class="cls-1" points="1.02 0.23 1.03 0.24 1.03 0.23 1.02 0.23"/><path class="cls-1" d="M1,.23H1Z"/><polygon class="cls-1" points="1.03 0.27 1.03 0.27 1.03 0.26 1.03 0.27"/><polygon class="cls-1" points="1.04 0.23 1.03 0.23 1.03 0.23 1.04 0.23"/><path class="cls-1" d="M1,.25H1Z"/><path class="cls-1" d="M1,.23H1Z"/><polygon class="cls-1" points="1.03 0.23 1.03 0.23 1.03 0.23 1.03 0.23"/><path class="cls-1" d="M1.1.28s0,0,0,0h0Z"/><path class="cls-1" d="M1,.26H1Z"/><path class="cls-1" d="M1,.25H1Z"/><path class="cls-1" d="M1.09.2h0Z"/><path class="cls-1" d="M1.08.21h0Z"/><ellipse class="cls-1" cx="1.06" cy="0.23" ry="0.01" transform="translate(0.54 1.18) rotate(-73.77)"/><polygon class="cls-1" points="1.02 0.27 1.01 0.26 1.03 0.27 1.02 0.27"/><polygon class="cls-1" points="1.02 0.28 1.01 0.27 1.02 0.28 1.02 0.28"/><path class="cls-1" d="M1,.83H1Z"/><path class="cls-1" d="M1,.81H1Z"/><path class="cls-1" d="M1,.5H1Z"/><polygon class="cls-1" points="1.03 0.67 1.03 0.67 1.02 0.66 1.03 0.67"/><path class="cls-1" d="M1.07.68h0Z"/><path class="cls-1" d="M1,.92H1Z"/><path class="cls-1" d="M1,.37H1Z"/><path class="cls-1" d="M.93.77h0Z"/><path class="cls-1" d="M1,.38H1S1,.38,1,.38Z"/><path class="cls-1" d="M.73,1.14h0Z"/><path class="cls-1" d="M.62,1h0Z"/><path class="cls-1" d="M1,.31Z"/><path class="cls-1" d="M1.06.31h0Z"/><path class="cls-1" d="M1.08.41h0Z"/><path class="cls-1" d="M1,.31H1Z"/><path class="cls-1" d="M1,.31H1Z"/><polygon class="cls-1" points="1.02 0.31 1.02 0.31 1.02 0.31 1.02 0.31"/><path class="cls-1" d="M.87,1h0Z"/><polygon class="cls-1" points="1.1 0.57 1.1 0.57 1.1 0.57 1.1 0.57"/><path class="cls-1" d="M1.11.58h0Z"/><path class="cls-1" d="M1,.86H1s0,0,0,0,0,0,0,0H1s0,0,0,0H1s0,0,0,0H1s0,0,0,0h0s0,0,0,0,0,0,0,0H1s0,0,0,0h0l0,0h0l0,0h.05l0,0h0s0,0,0,0h0v0h0s0,0,0,0h0s0,0,0,0h0s0,0,0,0h0a0,0,0,0,0,0,0h0L1,.56l.07,0a0,0,0,0,0,0,0h0s0,0,0,0h0s0,0,0,0h0L1,.48H1l.08,0h0v0s0,0,0,0h0s0,0,0,0h0s0,0,0,0,0,0,0,0h0v0h0s0,0,0,0L1,.36h0s0,0,0,0h0s0,0,0,0h0s0,0,0,0h0s0,0,0,0h0s0,0,0,0h0s0,0,0,0H1s0,0,0,0H1s0,0,0,0H1s0,0,0,0,0,0,0,0H1s0,0,0,0,0,0,0,0H1v0H1s0,0,0,0H1s0,0,0,0H1l0,0H1s0,0,0,0H1l0,0H1s0,0,0,0,0,0,0,0,0,0,0,0H1s0,0,0,0H1l0,0s0,0,0,0H1s0,0,0,0H1s0,0,0,0H1s0,0,0,0H1s0,0,0,0h0s0,0,0,0h0s0,0,0,0h0s0,0,0,0h0v0s0,0,0,0h0s0,0,0,0h0s0,0,0,0h0s0,0,0,0h0s0,0,0,0h0s0,0,0,0h0s0,0,0,0l0,0h0s0,0,0,0,0,0,0,0h0s0,0,0,0h0s0,0,0,0,0,0,0,0,0,0,0,0,0,0,0,0,0,0,0,0,0,0,0,0V1s0,0,0,0V1s0,0,0,0h0s0,0-.07,0,0,0,0,0V1s0,0,0,0h0s0,0,0,.07,0,0,0,0,0,0,0,0H.69s0,0,0,0,0,0,0,0,0,0,0,0h0s0,0,0,0h0s0,0,0,0h0v0s0,0,0,0h0s0,0,0,0v0s0,0,0,0,0,0,0,0,0,0,0,0,0,0,0,0h0s0,0,0,0,0,0,0,0h0s0,0,0,0h0s0,0,0,0,0,0,0,0,0,0,0,0h0s0,0,0,0,0,0,0,0,0,0,0,0h0s0,0,0,0,0,0,0,0h0s0,0,0,0h0s0,0,0,0v0H1S1,1,1,1H1S1,1,1,1H1v0H1l0,0H1s0,0,0,0H1s0,0,0,0H1s0,0,0,0H1s0,0,0,0ZM1,.79s0,0,0,0S1,.79,1,.79Zm0-.12h0ZM1,.33H1Zm0,0H1ZM.8,1h0Z"/><path class="cls-1" d="M1.07.68h0Z"/><polygon class="cls-1" points="1 0.91 1 0.91 1 0.92 1 0.91"/><path class="cls-1" d="M1.12.44h0Z"/><polygon class="cls-1" points="1.01 0.29 1.02 0.29 1.02 0.29 1.01 0.29"/><polygon class="cls-1" points="1.09 0.26 1.09 0.26 1.08 0.26 1.09 0.26"/><path class="cls-1" d="M1.05.29s0,0,0,0h0S1,.29,1.05.29Z"/><path class="cls-1" d="M1.06.28h0S1.06.28,1.06.28Z"/><path class="cls-1" d="M1,.32H1Z"/><polygon class="cls-1" points="1.09 0.29 1.07 0.29 1.08 0.29 1.09 0.29"/><polygon class="cls-1" points="1.08 0.31 1.08 0.31 1.07 0.31 1.08 0.31"/><path class="cls-1" d="M1.08.31h0Z"/><polygon class="cls-1" points="1.09 0.3 1.09 0.3 1.09 0.3 1.09 0.3"/><polygon class="cls-1" points="1.07 0.36 1.07 0.37 1.08 0.37 1.07 0.36"/><polygon class="cls-1" points="1.1 0.35 1.09 0.35 1.11 0.35 1.1 0.35"/><path class="cls-1" d="M1.11.37h0Z"/><polygon class="cls-1" points="1.08 0.45 1.08 0.45 1.05 0.44 1.08 0.45"/><path class="cls-1" d="M1.13.53s0,0,0,0h0Z"/><path class="cls-1" d="M1.11.52h0Z"/><polygon class="cls-1" points="0.6 1.03 0.6 1.03 0.6 1.04 0.6 1.03"/><polygon class="cls-1" points="0.6 1.05 0.59 1.04 0.59 1.05 0.6 1.05"/><polygon class="cls-1" points="1.08 0.79 1.07 0.79 1.07 0.79 1.08 0.79"/><polygon class="cls-1" points="1.04 0.84 1.04 0.84 1.03 0.83 1.04 0.84"/><path class="cls-1" d="M1,.89H1S1,.89,1,.89Z"/><path class="cls-1" d="M11.53,3.1s0,0,0,0S11.53,3.1,11.53,3.1Z"/><polygon class="cls-1" points="11.56 3.26 11.55 3.26 11.56 3.28 11.56 3.26"/><path class="cls-1" d="M11.56,3.41s0-.05,0-.08h0A.52.52,0,0,1,11.56,3.41Z"/><path class="cls-1" d="M11.52,3.49s0,0,0,0h0Z"/><path class="cls-1" d="M11.52,3.48s0,0,0,0Z"/><path class="cls-1" d="M11.53,3.55v0s0,0,0,0S11.52,3.56,11.53,3.55Z"/><path class="cls-1" d="M11.54,3.57h0A0,0,0,0,0,11.54,3.57Z"/><path class="cls-1" d="M11.53,3.54v0s0,0,0,0S11.54,3.54,11.53,3.54Z"/><path class="cls-1" d="M11.54,3.52s0,0,0,0S11.53,3.48,11.54,3.52Z"/><path class="cls-1" d="M11.58,3.42v0h0S11.57,3.42,11.58,3.42Z"/><path class="cls-1" d="M11.53,3.68h0v0S11.54,3.68,11.53,3.68Z"/><path class="cls-1" d="M11.54,3.67v0S11.54,3.67,11.54,3.67Z"/><polygon class="cls-1" points="11.56 3.57 11.55 3.53 11.56 3.58 11.56 3.57"/><polygon class="cls-1" points="11.54 3.77 11.53 3.76 11.55 3.78 11.54 3.77"/><path class="cls-1" d="M11.55,3.83s0,0,0,0l0,0A.08.08,0,0,1,11.55,3.83Z"/><path class="cls-1" d="M11.57,3.9v0Z"/><path class="cls-1" d="M11.56,3.73a0,0,0,0,0,0,0h0Z"/><path class="cls-1" d="M11.56,3.74h0v0Z"/><path class="cls-1" d="M11.56,3.73h0Z"/><path class="cls-1" d="M11.56,3.63s0,0,0,0S11.57,3.65,11.56,3.63Z"/><path class="cls-1" d="M11.57,3.72v0h0Z"/><polygon class="cls-1" points="11.57 3.73 11.57 3.72 11.57 3.73 11.57 3.73"/><path class="cls-1" d="M11.57,3.85v0S11.57,3.84,11.57,3.85Z"/><path class="cls-1" d="M11.56,3.8h0Z"/><polygon class="cls-1" points="11.63 4.02 11.64 4.01 11.63 4.01 11.63 4.02"/><path class="cls-1" d="M11.58,3.84a0,0,0,0,0,0,0v0Z"/><path class="cls-1" d="M11.59,3.93v0A.08.08,0,0,0,11.59,3.93Z"/><path class="cls-1" d="M11.56,3.8h0Z"/><path class="cls-1" d="M11.56,3.8h0v0Z"/><path class="cls-1" d="M11.72,4s0,0,0,0,0,0,0,0l0,0s0-.06,0,0,0,0,0,0,0,0,0,0l0,0Z"/><path class="cls-1" d="M11.62,4h0a.17.17,0,0,1,0,0l0,0,0-.05Z"/><path class="cls-1" d="M11.59,3.91s0,0,0,0,0,0,0,0,0,0,0,0v0h0s0,0,0,0h0l0,0Z"/><path class="cls-1" d="M11.61,3.67h0Z"/><path class="cls-1" d="M11.6,3.69a0,0,0,0,1,0,0h0s0,0,0,0h0a.13.13,0,0,1,0,0Z"/><path class="cls-1" d="M11.6,3.8v0h0S11.6,3.8,11.6,3.8Z"/><polygon class="cls-1" points="11.63 4.03 11.62 4.03 11.65 4.04 11.63 4.03"/><polygon class="cls-1" points="11.67 4.08 11.66 4.08 11.68 4.09 11.67 4.08"/><path class="cls-1" d="M11.63,1.58h0Z"/><path class="cls-1" d="M11.65,1.66h0Z"/><path class="cls-1" d="M12.15,3.11s0,0,0,0h0A.06.06,0,0,1,12.15,3.11Z"/><path class="cls-1" d="M11.9,2.29h0Z"/><path class="cls-1" d="M11.86,2.29v0Z"/><path class="cls-1" d="M11.53,1.13h0S11.53,1.13,11.53,1.13Z"/><path class="cls-1" d="M12.12,3.84v0S12.11,3.84,12.12,3.84Z"/><path class="cls-1" d="M11.75,1.59h0Z"/><path class="cls-1" d="M12.14,3.77h0a.16.16,0,0,1,0,0A.05.05,0,0,0,12.14,3.77Z"/><path class="cls-1" d="M12.13.48h0Z"/><path class="cls-1" d="M12,1v0A.1.1,0,0,0,12,1Z"/><path class="cls-1" d="M11.92,4.15Z"/><path class="cls-1" d="M11.85,4.12h0Z"/><path class="cls-1" d="M12.08,3.65h0Z"/><path class="cls-1" d="M11.9,4.15h0Z"/><path class="cls-1" d="M11.9,4.16h0Z"/><path class="cls-1" d="M11.94,4.14h0Z"/><path class="cls-1" d="M11.59.37h0S11.59.36,11.59.37Z"/><polygon class="cls-1" points="12 2.85 12 2.85 12 2.85 12 2.85"/><path class="cls-1" d="M12,2.81a0,0,0,0,1,0,0l0,0Z"/><path class="cls-1" d="M11.58,1.39v0s0-.05,0,0,0,.1.06.1v0h0s0,0,0,.06,0,0,0,0l0,0h0l0,.05h0l0,0s0,0,0,0l0,0s0,0,0,0,0,0,0,.08v0s0,0,0,.07,0-.07,0,0a.06.06,0,0,0,0,0s0,0,0,0h0s0,0,0,0a0,0,0,0,1,0,0s0,0,0,0a.21.21,0,0,0,0,.09s0,0,0,0l0,0h0s0,0,0,0,0,.06,0,.09h0l.05.07v0s0,0,0,0v0l0,0h0s0,0,0,0v0h0v.06A.38.38,0,0,1,12,2.5s0,0,0,0,0,0,0-.08,0,0,0,0l0,.05s0,0,0,0,0,0,0,.06,0,0,0,0,0,0,0,.07h0s0,.05,0,0h0s0,.14.05.14h0l.09.07s-.06,0-.07,0a.09.09,0,0,0,0,0s0,0,0,0a.27.27,0,0,0,0,.06s0,0,0,0h0l0,0s0,0,0,0,0,0,0,0V3c0,.05,0,0,0,.1s0,0,0,0a.21.21,0,0,1,.08.09h0v0L12,3.17s0,0,0,0,0,0,0,0v.07s0,.05,0,0l0-.07s0,0,0,.09,0,0,0,0a.09.09,0,0,1,0,0v0s0,0,0,.07,0,0,0,0a.11.11,0,0,1,.09,0,.43.43,0,0,1,0,.07s0,0,0,0h0s0,0,0,0,0,.05,0,0,0,0,0,.05,0,0,0,.05h0l0,.12s0,0,0,0a.05.05,0,0,1,0,0s0,0,0,0,0,0,0,.06,0,0,0-.07,0,0,0,.09,0,0,0,0,0,.08,0,.13,0,0,0,0S12,4,12,4l0,0a.09.09,0,0,1,0,0s-.06.12-.12.13,0,0,0,0h0s0,0,0,0a.1.1,0,0,1-.1,0v0h0s-.05,0-.07,0l0,0a.12.12,0,0,1-.1,0s0,0,0,0,.1,0,.07,0,0,0,.09,0,0,0,0,0h0l.07,0s0,0,0,0v0s.05,0,0,0l0,0a.11.11,0,0,0,0-.06s0,0,0,0V3.93h0a1,1,0,0,1,0-.16.22.22,0,0,1,0-.06h0s0-.06,0-.07,0-.1,0-.14h0a.4.4,0,0,0,0-.08h0s0-.07,0-.11,0,0,0,0,0-.11,0-.16a0,0,0,0,1,0,0h0v0h0v0h0s0,0,0,0v0s0,0,0-.05,0-.07,0-.07h0a.07.07,0,0,0,0,0h0l0,0s0,0,0,0a.82.82,0,0,0,0-.07h0s0,0,0,0a2.06,2.06,0,0,0,0-.24s0,0,0,0,0,0,0,0,0-.06,0-.09h0s0,0,0,0h0s0,0-.06,0a0,0,0,0,0,0,0s0,0,0,0,0-.09,0-.09,0,0,0,0l0-.07h0s0,0,0,0h0c0-.06,0,0,0-.09h0s0-.06,0-.09h0s0-.06,0-.08h0c0-.05,0,0,0,0s0,0,0,0,0-.06,0-.1,0,0,0,0,0-.08,0-.09h0s0-.06,0-.07,0-.12,0-.13V1.32h0a.1.1,0,0,0,0-.06h0a.17.17,0,0,0,0-.11h0s0-.08,0-.14h0c0-.06,0-.15,0-.18v0c0,.06,0,0,0,0s0-.06,0,0h0s0-.07,0-.07a1.69,1.69,0,0,1,0-.31h0v0s0,0,0,0,0,0,0,0,0,0,0,0v0h0a.06.06,0,0,1,0,0h0l0,0h0s0,0,0,0,.1-.1.12-.08a.06.06,0,0,1,.07,0s0,0,0,0,0,0,0,.07,0,.06,0,0,0,0,0,0a.51.51,0,0,1,0,.18,0,0,0,0,1,0,0l0,0s0,0,0,0h0a1.87,1.87,0,0,1,0,.43s0,0,0,0h0L12,1s0,.06,0,.07V1s0,0,.07,0,0-.07,0-.12,0,0,0,0,0,0,0-.05h0c0-.07,0-.11,0-.19h0a.09.09,0,0,1,0,0s0,.05,0,0,0-.13,0-.15,0,0,0,0h0s0,0,0,0v0s0-.07,0-.08v0A.62.62,0,0,0,12,.19h0s0,0-.07-.1h0l-.05,0s0,0,0,0,0,0-.09,0h0l0,0s0,0,0,0-.08.08-.12.09,0,0,0,0,0,0,0,0,0,0-.07.07h0s0,0,0,.06,0,0,0,0v0s0,.06,0,.1v0s0,0,0,0,0-.06,0-.09,0,.06,0,0,0,.05,0,.09h0a.08.08,0,0,1,0,0v0s0,.05,0,.08,0,0,0,0,0,0,0,.12,0,0,0,0l0,0c0,.05,0,0,0,0s0,0,0,0h0c0,.06,0,0,0,.07l0,0v0h0a.12.12,0,0,1,0,.07s0,0,0,0,0,0,0,0,0,0,0,0h0a.15.15,0,0,0,0,.06h0l0,.05s0,0,0,0a.3.3,0,0,1,0,0s0,0,0,0V1s0,0,0,0,0,.07,0,.11h0a.23.23,0,0,0,0,.11v0s0,0,0,0,0,0,0,0a.12.12,0,0,1,0,.09Zm.11.39s0,0,0,0S11.69,1.77,11.69,1.78Zm.21.57s0,0,0,0A.05.05,0,0,1,11.9,2.36ZM12,4h0S12,4,12,4Zm0,0h0v0ZM11.7.28h0S11.7.27,11.7.28Z"/><path class="cls-1" d="M11.86,2.29h0Z"/><polygon class="cls-1" points="11.54 1.14 11.54 1.13 11.53 1.13 11.54 1.14"/><path class="cls-1" d="M12,3.51h0Z"/><path class="cls-1" d="M11.77,4.16h0S11.78,4.16,11.77,4.16Z"/><path class="cls-1" d="M11.67,3.94h0S11.67,4,11.67,3.94Z"/><path class="cls-1" d="M11.76,4.11s0,0,0,0h0S11.73,4.11,11.76,4.11Z"/><path class="cls-1" d="M11.72,4.08h0Z"/><path class="cls-1" d="M12,4.12s0,0,0,0S12,4.08,12,4.12Z"/><polygon class="cls-1" points="11.76 4.07 11.76 4.09 11.77 4.08 11.76 4.07"/><path class="cls-1" d="M11.89,4.1h0Z"/><path class="cls-1" d="M11.85,4.11h0Z"/><path class="cls-1" d="M11.79,4.08h0Z"/><path class="cls-1" d="M12.06,3.89v0h0S12.05,3.89,12.06,3.89Z"/><path class="cls-1" d="M12,4h0Z"/><path class="cls-1" d="M12,3.88s0,0,0,0S12,3.9,12,3.88Z"/><polygon class="cls-1" points="12.09 3.46 12.09 3.47 12.11 3.47 12.09 3.46"/><path class="cls-1" d="M12,3.1s0,0,0,0,0,0,0,0S12,3.08,12,3.1Z"/><path class="cls-1" d="M12,3.11h0Z"/><polygon class="cls-1" points="12.03 1.04 12.03 1.06 12.04 1.04 12.03 1.04"/><polygon class="cls-1" points="12.05 1.08 12.04 1.08 12.05 1.1 12.05 1.08"/><path class="cls-1" d="M11.67,1.85h0s0,0,0,0Z"/><polygon class="cls-1" points="11.61 1.56 11.61 1.56 11.62 1.55 11.61 1.56"/><path class="cls-1" d="M11.54,1.32v0S11.55,1.31,11.54,1.32Z"/><path class="cls-1" d="M6.28.1h0Z"/><polygon class="cls-1" points="6.31 0.2 6.3 0.2 6.31 0.21 6.31 0.2"/><path class="cls-1" d="M6.31.29s0,0,0,0h0S6.31.28,6.31.29Z"/><path class="cls-1" d="M6.27.34s0,0,0,0h0Z"/><path class="cls-1" d="M6.27.33s0,0,0,0Z"/><path class="cls-1" d="M6.27.37h0S6.27.38,6.27.37Z"/><path class="cls-1" d="M6.28.39h0Z"/><path class="cls-1" d="M6.28.36h0s0,0,0,0S6.28.37,6.28.36Z"/><path class="cls-1" d="M6.28.36s0,0,0,0S6.28.33,6.28.36Z"/><path class="cls-1" d="M6.32.29h0S6.32.3,6.32.29Z"/><path class="cls-1" d="M6.26.45h0Z"/><path class="cls-1" d="M6.28.45h0S6.28.45,6.28.45Z"/><polygon class="cls-1" points="6.3 0.39 6.29 0.36 6.3 0.39 6.3 0.39"/><polygon class="cls-1" points="6.26 0.51 6.25 0.5 6.27 0.51 6.26 0.51"/><path class="cls-1" d="M6.26.54h0v0A0,0,0,0,1,6.26.54Z"/><path class="cls-1" d="M6.27.58h0Z"/><path class="cls-1" d="M6.28.48h0Z"/><path class="cls-1" d="M6.28.49h0Z"/><path class="cls-1" d="M6.28.48h0Z"/><path class="cls-1" d="M6.3.42s0,0,0,0Z"/><path class="cls-1" d="M6.3.48h0Z"/><polygon class="cls-1" points="6.3 0.48 6.3 0.48 6.29 0.48 6.3 0.48"/><path class="cls-1" d="M6.28.56a0,0,0,0,1,0,0v0Z"/><path class="cls-1" d="M6.28.52h0Z"/><polygon class="cls-1" points="6.28 0.65 6.29 0.65 6.28 0.65 6.28 0.65"/><path class="cls-1" d="M6.29.55a0,0,0,0,0,0,0v0Z"/><path class="cls-1" d="M6.27.6h0Z"/><path class="cls-1" d="M6.28.53h0Z"/><polygon class="cls-1" points="6.28 0.53 6.29 0.54 6.28 0.53 6.28 0.53"/><path class="cls-1" d="M6.35.68a0,0,0,0,1,0,0s0,0-.06,0v0s0,0,0,0,0,0,0,0,0,0,0,0v0Z"/><path class="cls-1" d="M6.29.63h0v0h0v0Z"/><path class="cls-1" d="M6.29.59s0,0,0,0,0,0,0,0,0,0,0,0v0h0v0A.09.09,0,0,0,6.29.59Z"/><path class="cls-1" d="M6.34.45h0Z"/><path class="cls-1" d="M6.33.46h0s0,0,0,0h0l0,0Z"/><path class="cls-1" d="M6.31.53v0h0S6.32.53,6.31.53Z"/><polygon class="cls-1" points="6.28 0.66 6.27 0.65 6.28 0.67 6.28 0.66"/><polygon class="cls-1" points="6.28 0.69 6.27 0.69 6.28 0.69 6.28 0.69"/><path class="cls-1" d="M6.4,2.44h0Z"/><path class="cls-1" d="M6.4,2.39h0Z"/><path class="cls-1" d="M6.28,1.45s0,0,0,0h0A0,0,0,0,1,6.28,1.45Z"/><polygon class="cls-1" points="6.35 1.97 6.35 1.97 6.34 1.96 6.35 1.97"/><path class="cls-1" d="M6.39,2h0Z"/><path class="cls-1" d="M6.41,2.71h0S6.42,2.71,6.41,2.71Z"/><path class="cls-1" d="M6.28,1V1S6.29,1,6.28,1Z"/><path class="cls-1" d="M6.29,2.42h0Z"/><path class="cls-1" d="M6.28,1.05h0a.06.06,0,0,1,0,0A0,0,0,0,0,6.28,1.05Z"/><path class="cls-1" d="M6.41,3.72h0Z"/><path class="cls-1" d="M6.3,4h0A0,0,0,0,0,6.3,4Z"/><path class="cls-1" d="M6.28.81Z"/><path class="cls-1" d="M6.32.78h0Z"/><path class="cls-1" d="M6.34,1.12h0Z"/><path class="cls-1" d="M6.28.8h0Z"/><path class="cls-1" d="M6.28.8h0S6.27.8,6.28.8Z"/><path class="cls-1" d="M6.28.82h0Z"/><path class="cls-1" d="M6.38,3.18h0S6.38,3.19,6.38,3.18Z"/><polygon class="cls-1" points="6.39 1.62 6.39 1.62 6.39 1.62 6.39 1.62"/><path class="cls-1" d="M6.4,1.64s0,0,0,0h0Z"/><path class="cls-1" d="M6.41,2.56v0s0,0,0,0,0-.06,0-.07h0s0,0,0,0h0v0h0v0h0l0,0h0v0s0,0,0,0,0,0,0-.05v0s0,0,0,0,0,0,0,0a0,0,0,0,0,0,0s0,0,0,0h0l0,0s0,0,0,0,0,0,0,0a.09.09,0,0,0,0-.06s0,0,0,0h0s0,0,0,0,0,0,0-.06h0l0,0V2s0,0,0,0h0V2h.06v0a.2.2,0,0,1-.05-.09h0s0,0,0,.05h0v0s0,0,0,0,0,0,0,0,0,0,0,0,0,0,0,0h0s0,0,0,0h0s0-.09,0-.09h0l-.07-.05s.06,0,.07,0a0,0,0,0,0,0,0h0l0,0s0,0,0,0h0l0,0h0s0,0,0,0h0s0,0,0-.06,0,0,0,0-.07,0-.08-.06h0v0l.08.07s0,0,0,0,0,0,0,0v0s0,0,0,0l0,0a.05.05,0,0,1,0-.06h0s0,0,0,0h0s0,0,0,0,0,0,0,0H6.31l0,0s0,0,0,0h0s0,0,0,0,0,0,0,0,0,0,0,0,0,0,0,0h0s0,0,0-.08,0,0,0,0V1s0,0,0,0,0,0,0,0,0,0,0,0,0,0-.05-.05,0,0,0,0,0,0,0-.08,0,0,0,0,0,0,0,0v0a0,0,0,0,1,0,0s0-.08,0-.11h0s0,0,0,0a.07.07,0,0,1,0-.05h0s0,0,0,0,0,0,0,0h0s0,0,0-.05l0,0s0,0,0,0,0,0,0,0,0,0,0,0h0s0,0,0,0h0s0,0,0,0v0a0,0,0,0,0,0,0s0,0,0,0V1h0s0,.06,0,.1a.07.07,0,0,1,0,0h0s0,0,0,0,0,.06,0,.09h0a.17.17,0,0,0,0,.05h0s0,0,0,.07,0,0,0,0,0,.07,0,.1a0,0,0,0,1,0,0h0v0h0s0,0,0,0,0,0,0,0h0a0,0,0,0,0,0,0h0l0,0s0,0,0,0,0,0,0,0h0s0,0,0,0,0,.1,0,.15,0,0,0,0h0s0,0,0,.06h0s0,0,0,0h0s0,0,0,0,0,0,0,0,0,0,0,0,0,.06,0,.06,0,0,0,0a.25.25,0,0,0,0,0h0s0,0,0,0h0s0,0,0,.05h0s0,0,0,.05h0s0,0,0,0h0s0,0,0,0,0,0,0,0,0,0,0,.07,0,0,0,0,0,0,0,.06h0s0,0,0,0,0,.08,0,.08v0h0a0,0,0,0,0,0,0h0a.07.07,0,0,0,0,.07h0s0,.05,0,.09h0s0,.1,0,.11v0s0,0,0,0,0,0,0,0h0s0,0,0,0,0,.13,0,.2h0v0s0,0,0,0,0,0,0,0,0,0,0,0h0s0,0,0,0h0s0,0,0,0v0h0s0,0,0,0,0,.1,0,.11a.09.09,0,0,1,0,.05s0,0,0,0,0,0,0,0,0,.05,0,0,0,0,0,0,0,.08,0,.12h0l0,0s0,0,0,0h0c0,.09,0,.18,0,.27s0,0,0,0h0l0,0s0,0,0,0h0s0,0,.07,0,0,0,0-.07h0s0,0,0,0h0a.54.54,0,0,1,0-.12h0v0s0,0,0,0,0-.08,0-.09,0,0,0,0h0l0,0h0s0,0,0,0v0a.88.88,0,0,0,0-.15h0s0,0,0-.06h0a0,0,0,0,1,0,0s0,0,0,0,0,0,0,0h0a0,0,0,0,1,0,0s0,0,0,0,0-.06,0-.08,0,0,0,0,0,0,0,0,0,0,0-.05h0s0,0,0,0,0,0,0,0v0s0,0,0-.06v0s0,0,0,0,0,0,0,.05,0,0,0,0,0,0,0-.05h0v0h0s0,0,0,0,0,0,0,0,0,0,0-.07,0,0,0,0V3s0,0,0,0,0,0,0,0h0s0,0,0,0h0v0h0a0,0,0,0,1,0,0s0,0,0,0,0,0,0,0,0,0,0,0h0s0,0,0,0h0l0,0h0v0s0,0,0,0v0h0s0,0,0-.07h0s0,0,0-.07h0s0,0,0,0,0,0,0,0,0,0,0-.05S6.4,2.55,6.41,2.56Zm0-.25s0,0,0,0S6.39,2.32,6.4,2.31Zm0-.38s0,0,0,0A0,0,0,0,1,6.37,1.93Zm-.08-1h0S6.28.89,6.29.88Zm0,0h0s0,0,0,0S6.29.87,6.29.86Zm0,2.39h0S6.3,3.25,6.3,3.25Z"/><path class="cls-1" d="M6.39,2h0Z"/><polygon class="cls-1" points="6.41 2.71 6.41 2.71 6.41 2.71 6.41 2.71"/><path class="cls-1" d="M6.39,1.21h0Z"/><path class="cls-1" d="M6.27.74h0Z"/><path class="cls-1" d="M6.34.62h0S6.34.63,6.34.62Z"/><path class="cls-1" d="M6.31.73s0,0,0,0h0S6.31.72,6.31.73Z"/><path class="cls-1" d="M6.31.71h0S6.31.7,6.31.71Z"/><path class="cls-1" d="M6.28.83h0S6.29.86,6.28.83Z"/><polygon class="cls-1" points="6.34 0.72 6.33 0.73 6.34 0.73 6.34 0.72"/><path class="cls-1" d="M6.33.8v0h0S6.33.8,6.33.8Z"/><path class="cls-1" d="M6.33.78h0Z"/><polygon class="cls-1" points="6.35 0.74 6.34 0.75 6.34 0.76 6.35 0.74"/><path class="cls-1" d="M6.33,1V1h0Z"/><path class="cls-1" d="M6.37.92h0Z"/><path class="cls-1" d="M6.37,1s0,0,0,0S6.37,1,6.37,1Z"/><polygon class="cls-1" points="6.35 1.23 6.35 1.23 6.32 1.23 6.35 1.23"/><path class="cls-1" d="M6.41,1.47s0,0,0,0,0,0,0,0S6.39,1.47,6.41,1.47Z"/><path class="cls-1" d="M6.39,1.45h0Z"/><polygon class="cls-1" points="6.28 4.06 6.28 4.07 6.29 4.07 6.28 4.06"/><polygon class="cls-1" points="6.3 4.08 6.29 4.09 6.3 4.1 6.3 4.08"/><path class="cls-1" d="M6.43,2.27h0Z"/><polygon class="cls-1" points="6.42 2.45 6.42 2.45 6.4 2.46 6.42 2.45"/><path class="cls-1" d="M6.44,2.6s0,0,0,0S6.42,2.61,6.44,2.6Z"/><path class="cls-1" d="M6.35,2.16h0S6.35,2.16,6.35,2.16Z"/><polygon class="cls-1" points="6.41 2.12 6.41 2.13 6.42 2.11 6.41 2.12"/><path class="cls-1" d="M6.47,2.1s0,0,0,0h0v0Z"/><path class="cls-1" d="M6.52,2.11h0Z"/><path class="cls-1" d="M6.51,2.12Z"/><path class="cls-1" d="M6.54,2.09h0S6.55,2.1,6.54,2.09Z"/><path class="cls-1" d="M6.54,2.08h0Z"/><path class="cls-1" d="M6.53,2.09h0s0,0,0,0S6.53,2.09,6.53,2.09Z"/><path class="cls-1" d="M6.52,2.09s0,0,0,0S6.51,2.11,6.52,2.09Z"/><path class="cls-1" d="M6.46,2.08h0Z"/><path class="cls-1" d="M6.59,2.06h0Z"/><path class="cls-1" d="M6.57,2.06h0A0,0,0,0,0,6.57,2.06Z"/><polygon class="cls-1" points="6.53 2.06 6.52 2.08 6.53 2.06 6.53 2.06"/><polygon class="cls-1" points="6.61 2.04 6.62 2.05 6.61 2.03 6.61 2.04"/><path class="cls-1" d="M6.63,2h0a0,0,0,0,0,0,0Z"/><path class="cls-1" d="M6.64,2h0Z"/><path class="cls-1" d="M6.59,2h0Z"/><polygon class="cls-1" points="6.59 2.03 6.59 2.03 6.6 2.03 6.59 2.03"/><path class="cls-1" d="M6.59,2h0Z"/><path class="cls-1" d="M6.55,2.05s0,0,0,0S6.55,2,6.55,2.05Z"/><polygon class="cls-1" points="6.58 2.03 6.57 2.04 6.57 2.04 6.58 2.03"/><polygon class="cls-1" points="6.58 2.02 6.58 2.03 6.58 2.03 6.58 2.02"/><path class="cls-1" d="M6.62,2h0Z"/><path class="cls-1" d="M6.61,2h0Z"/><polygon class="cls-1" points="6.66 1.95 6.66 1.95 6.66 1.95 6.66 1.95"/><path class="cls-1" d="M6.61,2h0Z"/><path class="cls-1" d="M6.65,2h0Z"/><path class="cls-1" d="M6.61,2h0Z"/><polygon class="cls-1" points="6.61 2.02 6.61 2.01 6.61 2.02 6.61 2.02"/><path class="cls-1" d="M6.61,1.9s0,0,0,0,0,0,.05,0a0,0,0,0,1,0,0s0,0,0,0,0,0,0,0,0,0,0,0h0Z"/><path class="cls-1" d="M6.64,2h0Z"/><path class="cls-1" d="M6.63,2s0,0,0,0,0,0,0,0,0,0,0,0h0V2Z"/><path class="cls-1" d="M6.53,2h0Z"/><path class="cls-1" d="M6.54,2h0s0,0,0,0h0Z"/><ellipse class="cls-1" cx="6.59" cy="1.98" ry="0.01" transform="translate(-0.27 2.57) rotate(-21.6)"/><polygon class="cls-1" points="6.66 1.95 6.67 1.96 6.66 1.94 6.66 1.95"/><polygon class="cls-1" points="6.67 1.93 6.68 1.94 6.68 1.93 6.67 1.93"/><path class="cls-1" d="M6.77.9h0Z"/><path class="cls-1" d="M6.77.93h0Z"/><path class="cls-1" d="M6.86,1.49h0Z"/><polygon class="cls-1" points="6.84 1.17 6.83 1.17 6.84 1.18 6.84 1.17"/><path class="cls-1" d="M6.79,1.17h0Z"/><path class="cls-1" d="M6.73.75h0Z"/><path class="cls-1" d="M6.77,1.76h0S6.76,1.75,6.77,1.76Z"/><path class="cls-1" d="M6.89.9h0Z"/><path class="cls-1" d="M6.78,1.73h0S6.79,1.74,6.78,1.73Z"/><path class="cls-1" d="M6.5.24h0Z"/><path class="cls-1" d="M6.41.06h0Z"/><path class="cls-1" d="M6.72,1.87Z"/><path class="cls-1" d="M6.67,1.86h0Z"/><path class="cls-1" d="M6.74,1.67h0Z"/><path class="cls-1" d="M6.71,1.87h0Z"/><path class="cls-1" d="M6.72,1.87h0Z"/><polygon class="cls-1" points="6.72 1.86 6.72 1.87 6.72 1.87 6.72 1.86"/><path class="cls-1" d="M6.68.48h0S6.68.48,6.68.48Z"/><polygon class="cls-1" points="6.77 1.37 6.77 1.37 6.77 1.37 6.77 1.37"/><path class="cls-1" d="M6.76,1.36s0,0,0,0h0Z"/><path class="cls-1" d="M6.76.83h0s0,0,0,0,0,0,0,0h0s0,0,0,0h0v0h0s0,0,0,0h0s0,0,0,0,0,0,0,0a0,0,0,0,0,0,0s0,0,0,0h0s0,0,0,0,0,0,0,0h0s0,0,0,0h0l0,0h0s0,0,0,0h0v0H6.8v0s0,0,0,.05h0s0,0,0,0h0v0h0s0,0,0,0,0,0,0,0,0,0,0,0h0s0,0,0,0h0s0,.05,0,.06h0l.07,0s-.06,0-.07,0a0,0,0,0,0,0,0h0l0,0h0s0,0,0,0h0s0,0,0,0h0s.06,0,.07.06h0v0l-.07-.06h0s0,0,0,0v0s0,0,0,0v0s0,0,0,0h0s0,0,0,0h0s0,0,0,0h0l.09,0,0,0,0,0h0s0,0,0,0,0,0,0,0a.05.05,0,0,1,0,0h0l0,0h0s0,0,0,0,0,0,0,0,0,0,0,0,0,0,0,0a.06.06,0,0,1,0,0s0,0,0,0,0,0,0,.05h0s0,0,0,0h0s0,0,0,0,0,0,0,.05h0s0,0,0,0,0,0,0,0h0s0,0,0,0h0s0,0,0,0h0s0,0,0,0h0s0,0,0,0h0s0,0,0,0h0s0,0,0,0h0v0s0,0,0,0v0h0s0,0,0-.05a0,0,0,0,1,0,0h0s0,0,0,0,0,0,0,0h0a.07.07,0,0,0,0,0h0s0,0,0,0h0s0,0,0-.06,0,0,0,0h0a.06.06,0,0,0,0,0h0s0,0,0,0,0,0,0,0h0s0,0,0,0h0l0,0h0l0,0h0s0,0,0,0,0-.06,0-.09,0,0,0,0h0s0,0,0,0h0s0,0,0,0,0,0,0,0h0s0,0,0,0h0a.09.09,0,0,0,0,0h0s0,0,0,0h0s0,0,0,0h0s0,0,0,0h0s0,0,0,0h0s0,0,0,0h0s0,0,0,0h0s0,0,0,0h0l0,0s0,0,0,0v0h0s0,0,0,0h0s0,0,0,0h0s0,0,0-.05h0s0-.07,0-.06h0s0,0,0,0,0,0,0,0h0s0,0,0,0l0-.12h0s0,0,0,0,0,0,0,0h0v0h0s0,0,0,0,0-.06,0-.07l0,0s0,0,0,0,0,0,0,0,0,0,0,0,0,0,0,0,0,0,0-.06h0v0s0,0,0,0h0c0-.06-.09-.06-.14-.12s0,0,0,0v0l0,0s0,0,0,0h0s0,0,0,.07,0,0,0,0h0s0,0,0,0h0a0,0,0,0,1,0,0s0,0,0,0,0,0,0,.05h0s0,0,0,0h0s0,0,0,0h0s0,0,.06.05h0s0,0,0,0h0s0,0,0,0h0s0,0,0,0,0,0,0,0h0s0,0,0,0h0s0,0,0,0h0s0,0,0,0h0s0,0,0,0,0,0,0,0,0,0,0,0,0,0,0,0h0s0,0,0,0,0,0,0,0,0,0,0,0,0,0,0,0v0s0,0,0,0,0,0,0,0h0s0,0,0,0h0s0,0,0,0h0s0,0,0,0,0,0,0,0h0s0,0,0,0h0s0,0,0,0h0s0,0,0,0h0s0,0,0,0,0,0,0,0,0,0,0,0Zm0,.14s0,0,0,0S6.79,1,6.78,1Zm0,.22a0,0,0,0,1,0,0Zm-.08.63h0S6.74,1.82,6.73,1.82Zm0,0h0Zm0-1.43h0S6.74.41,6.74.41Z"/><path class="cls-1" d="M6.8,1.17h0Z"/><polygon class="cls-1" points="6.73 0.75 6.73 0.75 6.73 0.75 6.73 0.75"/><path class="cls-1" d="M6.71,1.6h0Z"/><polygon class="cls-1" points="6.7 1.91 6.7 1.9 6.7 1.9 6.7 1.91"/><path class="cls-1" d="M6.6,1.93h0S6.6,1.93,6.6,1.93Z"/><path class="cls-1" d="M6.66,1.89s0,0,0,0h0S6.66,1.9,6.66,1.89Z"/><path class="cls-1" d="M6.65,1.9h0S6.65,1.9,6.65,1.9Z"/><path class="cls-1" d="M6.72,1.85h0S6.72,1.83,6.72,1.85Z"/><polygon class="cls-1" points="6.63 1.88 6.64 1.89 6.64 1.88 6.63 1.88"/><path class="cls-1" d="M6.66,1.84h0Z"/><path class="cls-1" d="M6.66,1.86h0Z"/><polygon class="cls-1" points="6.64 1.87 6.64 1.87 6.64 1.86 6.64 1.87"/><polygon class="cls-1" points="6.71 1.75 6.71 1.74 6.71 1.75 6.71 1.75"/><polygon class="cls-1" points="6.67 1.77 6.68 1.77 6.67 1.76 6.67 1.77"/><path class="cls-1" d="M6.68,1.74s0,0,0,0S6.67,1.75,6.68,1.74Z"/><polygon class="cls-1" points="6.75 1.6 6.75 1.6 6.78 1.61 6.75 1.6"/><path class="cls-1" d="M6.73,1.46s0,0,0,0h0S6.75,1.46,6.73,1.46Z"/><path class="cls-1" d="M6.75,1.47h0Z"/><polygon class="cls-1" points="6.37 0.04 6.36 0.03 6.37 0.04 6.37 0.04"/><polygon class="cls-1" points="6.35 0.06 6.35 0.04 6.34 0.05 6.35 0.06"/><polygon class="cls-1" points="6.75 1 6.76 1 6.76 0.99 6.75 1"/><polygon class="cls-1" points="6.75 0.89 6.75 0.9 6.77 0.89 6.75 0.89"/><path class="cls-1" d="M6.72.81h0S6.74.81,6.72.81Z"/><path class="cls-1" d="M3.6,3.66s0,0,0,0S3.6,3.66,3.6,3.66Z"/><polygon class="cls-1" points="3.84 3.61 3.83 3.62 3.87 3.6 3.84 3.61"/><path class="cls-1" d="M4.05,3.56s-.08,0-.12,0h0v0Z"/><path class="cls-1" d="M4.18,3.56h0Z"/><path class="cls-1" d="M4.16,3.57Z"/><path class="cls-1" d="M4.26,3.52l0,0h0S4.27,3.52,4.26,3.52Z"/><path class="cls-1" d="M4.28,3.5h0Z"/><path class="cls-1" d="M4.23,3.52l0,0s0,0,0,0Z"/><path class="cls-1" d="M4.22,3.53s0,0,0,0S4.16,3.56,4.22,3.53Z"/><path class="cls-1" d="M4.06,3.54h0Z"/><path class="cls-1" d="M4.43,3.44h0l0,0Z"/><path class="cls-1" d="M4.41,3.43l0,0Z"/><polygon class="cls-1" points="4.27 3.48 4.23 3.51 4.28 3.47 4.27 3.48"/><polygon class="cls-1" points="4.54 3.36 4.53 3.38 4.55 3.35 4.54 3.36"/><path class="cls-1" d="M4.61,3.31s0,0,0,0l0-.05Z"/><path class="cls-1" d="M4.68,3.24l0,0Z"/><path class="cls-1" d="M4.49,3.38h0Z"/><path class="cls-1" d="M4.5,3.37h0l0,0Z"/><path class="cls-1" d="M4.48,3.38h0Z"/><path class="cls-1" d="M4.36,3.44s0,0,0,0S4.38,3.42,4.36,3.44Z"/><path class="cls-1" d="M4.46,3.38l0,0s0,0,0,0Z"/><polygon class="cls-1" points="4.48 3.36 4.46 3.38 4.47 3.37 4.48 3.36"/><path class="cls-1" d="M4.62,3.27l0,0,0,0S4.61,3.29,4.62,3.27Z"/><path class="cls-1" d="M4.56,3.32h0Z"/><polygon class="cls-1" points="4.79 3.09 4.79 3.1 4.79 3.1 4.79 3.09"/><path class="cls-1" d="M4.61,3.27l0,0,0,0Z"/><path class="cls-1" d="M4.71,3.2l0,0Z"/><path class="cls-1" d="M4.57,3.32h0Z"/><path class="cls-1" d="M4.57,3.32v0l0,0Z"/><path class="cls-1" d="M4.77,3s0,0,0,.06,0,0,.06,0,0,0,0,0-.06.05,0,0,0,0,0,0,0-.06,0-.06l0,0S4.78,3,4.77,3Z"/><path class="cls-1" d="M4.74,3.15h0l0,0a.06.06,0,0,0,0,0l0,.05Z"/><path class="cls-1" d="M4.69,3.21s0,0,0,0,0,0,0,0,0,0,0,0l0,0,0,0h0s0,0,0,0h0l0-.06Z"/><path class="cls-1" d="M4.38,3.37h0Z"/><path class="cls-1" d="M4.41,3.37l0,0s0,0,0,0,0,0,0,0h0Z"/><path class="cls-1" d="M4.55,3.29l0,0h0S4.55,3.28,4.55,3.29Z"/><polygon class="cls-1" points="4.8 3.09 4.8 3.11 4.81 3.07 4.8 3.09"/><polygon class="cls-1" points="4.84 3.03 4.85 3.04 4.86 3.02 4.84 3.03"/><path class="cls-1" d="M2.86.86h0Z"/><path class="cls-1" d="M3,.8H3S3,.8,3,.8Z"/><path class="cls-1" d="M4.92,1.28s0-.06,0,0h0Z"/><polygon class="cls-1" points="3.89 0.63 3.89 0.63 3.91 0.63 3.89 0.63"/><path class="cls-1" d="M3.86.67h0Z"/><path class="cls-1" d="M2.41,1.29v0S2.42,1.29,2.41,1.29Z"/><path class="cls-1" d="M5.14,2.32V2.27S5.13,2.31,5.14,2.32Z"/><path class="cls-1" d="M2.84.73h0Z"/><path class="cls-1" d="M5.15,2.2h0a.21.21,0,0,1,0,.05A.1.1,0,0,0,5.15,2.2Z"/><path class="cls-1" d="M2.79,3.29h0Z"/><path class="cls-1" d="M3.39,3.63h0Z"/><path class="cls-1" d="M5,2.77Z"/><path class="cls-1" d="M4.94,2.82h0Z"/><path class="cls-1" d="M5.09,2h0S5.09,2,5.09,2Z"/><path class="cls-1" d="M5,2.79v0Z"/><path class="cls-1" d="M5,2.79H5Z"/><path class="cls-1" d="M5,2.75v0H5Z"/><path class="cls-1" d="M2.14,2.29h0S2.14,2.3,2.14,2.29Z"/><polygon class="cls-1" points="4.58 1.03 4.58 1.04 4.58 1.03 4.58 1.03"/><path class="cls-1" d="M4.53,1a.07.07,0,0,1,0,0V1Z"/><path class="cls-1" d="M2.64,1l0,0s0,.06,0,0S2.77,1,2.75.93h0s0,0,.07-.07,0,0,0,0l0,0s0,0,0,0L3,.8H3l0,0s0,0,0,0l0,0s0,0,0,0,0,0,.11,0l0,0s.06,0,.1,0-.09,0-.05,0l0,0s0,0,.05,0v0l0,0s0,0,.05,0,0,0,0,0a.58.58,0,0,0,.13,0s0,0,0,0h0s0,0,0,0,0,0,0,0,.08,0,.13,0,0,0,0,0l.11,0,0,0s0,0,.05,0l0,0h.06s0,0,0,0h0s0,0,0,0l0,0s0,0,0,0h0v0h0L4,.71a.49.49,0,0,1,.2,0s0,0,0,0-.07,0-.11,0,0,0,0,0h.08s0,0,0,0,.06,0,.1,0,0,0,0,0,.07,0,.1,0h0s.07,0,.05,0h0c.06,0,.17.12.19.11h0l.14,0s0,.06-.07,0l.05,0s0,0,0,0a.42.42,0,0,0,0,.08s0,0,0,0l0,0,.06,0s0,0,0,0l0,.06v0c0,.06.07,0,.11.1s0,0,0,0A.25.25,0,0,1,5,1.46H5l0,0L4.87,1.4s0,0,0,0,0,0,0,0l0,.09s0,.06.05.05l-.06-.09s.07,0,.09.1,0,0,0,0a.17.17,0,0,1,0,.06l0,0s0,0,0,.1,0,0,0,0,.07,0,.09,0a.42.42,0,0,1,0,.11s0,0-.05,0l0,0s0,0,0,0,0,.07,0,0a.3.3,0,0,1,0,.08s0,0,0,.07h0a1.62,1.62,0,0,1,0,.18s0,0,0,0a.1.1,0,0,1,0,0s0,0,0,0,0,.05,0,.08,0-.07,0-.1,0,.06,0,.13,0,0,0,0,0,.1,0,.18,0,0,0,0,0-.06,0-.09l0,0a.15.15,0,0,1,0-.06,1.87,1.87,0,0,1-.1.24s0,0,0,0v0s0,.05,0,0a.26.26,0,0,1,0,.12h0a.11.11,0,0,0,0,0s-.06.05-.05.08l0,0A.28.28,0,0,1,4.86,3l0,0s.06-.1,0-.07,0,0,.07-.07,0,0,0,0H5a.59.59,0,0,1,0-.1s0,0,0,0v0s0,0,0,0l0,0a.23.23,0,0,0,0-.08s0-.06,0,0V2.45h0c0-.07,0-.15,0-.23a.42.42,0,0,1,0-.09h0a.42.42,0,0,0,0-.11s0-.16,0-.21h0a.67.67,0,0,0,0-.12h0l0-.16s0,0,0,0S5,1.41,5,1.34l0,0h0v0l0,0h0s0,0,0,0l0,0s0,0,0-.07-.07-.07-.09-.07h0l0,0V1l0,0s0,0,0,0L4.56.92h0s-.05,0-.06,0a1.32,1.32,0,0,0-.3-.2s0,0-.06,0,0,0,0,0S4.07.6,4,.61s0,0,0,0H4c-.06,0-.07,0-.08,0a.07.07,0,0,0-.07,0s0,0,0,0-.13,0-.14,0H3.62s0,0-.08,0H3.41s-.08,0-.13,0h0s-.08,0-.11,0h0c-.08,0,0,0-.06,0s0,0,0,0S3,.66,3,.67s0,0,0,0-.11,0-.13.06h0a.58.58,0,0,0-.09.08S2.6,1,2.58.93L2.52,1h0a.17.17,0,0,0-.06.08s0,0,0,0a.27.27,0,0,0-.1.14h0a.79.79,0,0,0-.12.18,0,0,0,0,1,0,0c0,.09-.13.2-.09.25a.55.55,0,0,0,0,.06c0-.08,0,0,0,0s0,.08,0,0h0s0,.1,0,.09a1.78,1.78,0,0,0,0,.47l0,0V2.3s0,0,0,0,0,.06,0,.06,0,0,0,0v0h0a.2.2,0,0,1,0,.07s0,0,0,0v0l0,.07v0s0,.06,0,0,.08.23.09.26l.07.11s0,0,0,0,0,.07,0,.12.08.1.07,0,0,0,0,0a2.56,2.56,0,0,0,.22.21s0,0,0,0l0,.05s0,0,.05,0,0,0,0,0a1.94,1.94,0,0,0,.59.25s0,0,0,0,0,0,0,0l.09,0s.1,0,.11,0h0s0,0,0-.07-.1,0-.17,0,0,0,0,0,0,0-.07,0h0A.91.91,0,0,1,3,3.41H3l0,0s.06,0,0,0-.16-.08-.16-.12,0,0,0,0h0s0,0,0,0h0a.57.57,0,0,0-.08-.06l0,0A2.16,2.16,0,0,1,2.48,3h0c-.06-.05,0-.05-.09-.12h0l0,0s0,0,0,0,0,0-.08-.07v0a.12.12,0,0,1,0-.05s0,0,0,0-.07-.12-.06-.16,0,.08,0,.06,0,0,0-.05,0-.06,0-.13h0s0,0,0-.08,0,0,0,0v.06a.32.32,0,0,1,0-.13l0,0s0,0,0-.05,0,.08,0,.12,0-.07,0-.06,0-.07,0-.12h0a.15.15,0,0,1,0,0l0,0s0-.08,0-.11,0,0,0,.05,0-.06,0-.16,0,.05,0,0a.15.15,0,0,1,0-.06c0-.07,0,0,0,0s0,0,0-.07h0c0-.08,0,0,0-.1v0h0a.18.18,0,0,1,0-.09s0,0,0,0,0,0,0,0a0,0,0,0,1,0,0v0a.29.29,0,0,0,0-.08v0a.48.48,0,0,1,0-.08s0,0,0,0v0s0,0,0,0l0-.07,0,0s0-.09.07-.13v0a.77.77,0,0,0,.09-.12h0s0,0,0,0,0,0,0,0A.2.2,0,0,1,2.67,1ZM3.12.73l0,0S3.1.74,3.12.73ZM4,.67H4ZM5.07,2.6h0S5.07,2.59,5.07,2.6Zm0,0H5v0Zm-3-.19h0S2.1,2.47,2.09,2.47Z"/><path class="cls-1" d="M3.87.67h0S3.86.66,3.87.67Z"/><polygon class="cls-1" points="2.42 1.28 2.41 1.29 2.42 1.29 2.42 1.28"/><path class="cls-1" d="M5,1.85v0S5,1.83,5,1.85Z"/><path class="cls-1" d="M4.93,2.92l0,0,0,0S4.94,2.91,4.93,2.92Z"/><path class="cls-1" d="M4.69,3.11h0S4.71,3.1,4.69,3.11Z"/><path class="cls-1" d="M4.88,2.93s0,0,0,0h0S4.87,3,4.88,2.93Z"/><path class="cls-1" d="M4.85,3V3Z"/><path class="cls-1" d="M5,2.72s0,0,0,0S5,2.66,5,2.72Z"/><polygon class="cls-1" points="4.84 2.93 4.86 2.92 4.86 2.91 4.84 2.93"/><path class="cls-1" d="M4.94,2.77l0,0a0,0,0,0,1,0,0Z"/><path class="cls-1" d="M4.92,2.81v0Z"/><polygon class="cls-1" points="4.87 2.88 4.87 2.87 4.89 2.85 4.87 2.88"/><path class="cls-1" d="M5.08,2.39v0s0,0,0,0S5.07,2.39,5.08,2.39Z"/><path class="cls-1" d="M5,2.5H5Z"/><path class="cls-1" d="M5,2.38s0-.06,0,0S5,2.42,5,2.38Z"/><polygon class="cls-1" points="5.05 1.78 5.05 1.79 5.08 1.78 5.05 1.78"/><path class="cls-1" d="M4.79,1.31s0,0,0,0,0,0,0,0S4.8,1.29,4.79,1.31Z"/><path class="cls-1" d="M4.82,1.33h0Z"/><polygon class="cls-1" points="3.5 3.65 3.54 3.66 3.52 3.65 3.5 3.65"/><path class="cls-1" d="M3.57,3.64v0h0Z"/><path class="cls-1" d="M3.21.74h0Z"/><polygon class="cls-1" points="2.84 0.89 2.84 0.89 2.82 0.88 2.84 0.89"/><path class="cls-1" d="M2.59,1.12l0,0S2.57,1.11,2.59,1.12Z"/><path class="cls-1" d="M7.53.1h0A0,0,0,0,0,7.53.1Z"/><polygon class="cls-1" points="7.56 0.21 7.55 0.21 7.56 0.23 7.56 0.21"/><path class="cls-1" d="M7.56.31s0,0,0-.06h0A.23.23,0,0,1,7.56.31Z"/><path class="cls-1" d="M7.52.37s0,0,0,0h0Z"/><path class="cls-1" d="M7.52.36s0,0,0,0Z"/><path class="cls-1" d="M7.52.41h0S7.52.42,7.52.41Z"/><path class="cls-1" d="M7.53.42h0Z"/><path class="cls-1" d="M7.53.4v0s0,0,0,0S7.53.41,7.53.4Z"/><path class="cls-1" d="M7.53.39s0,0,0,0S7.53.36,7.53.39Z"/><path class="cls-1" d="M7.57.32h0S7.57.32,7.57.32Z"/><path class="cls-1" d="M7.51.5h0Z"/><path class="cls-1" d="M7.53.49v0S7.53.49,7.53.49Z"/><polygon class="cls-1" points="7.55 0.42 7.54 0.4 7.55 0.43 7.55 0.42"/><polygon class="cls-1" points="7.51 0.56 7.5 0.55 7.52 0.56 7.51 0.56"/><path class="cls-1" d="M7.51.6h0v0A0,0,0,0,1,7.51.6Z"/><path class="cls-1" d="M7.52.64h0Z"/><path class="cls-1" d="M7.53.53h0Z"/><path class="cls-1" d="M7.53.54h0Z"/><path class="cls-1" d="M7.53.53h0Z"/><path class="cls-1" d="M7.55.47s0,0,0,0Z"/><path class="cls-1" d="M7.55.52v0h0Z"/><polygon class="cls-1" points="7.55 0.53 7.55 0.52 7.54 0.53 7.55 0.53"/><path class="cls-1" d="M7.53.61a0,0,0,0,1,0,0v0S7.53.6,7.53.61Z"/><path class="cls-1" d="M7.53.58h0Z"/><polygon class="cls-1" points="7.53 0.72 7.54 0.72 7.53 0.72 7.53 0.72"/><path class="cls-1" d="M7.54.61a0,0,0,0,0,0,0v0Z"/><path class="cls-1" d="M7.52.67h0Z"/><path class="cls-1" d="M7.53.58h0Z"/><path class="cls-1" d="M7.53.58h0Z"/><path class="cls-1" d="M7.6.75s0,0,0,0,0,0-.06,0v0s0,0,0,0,0,0,0,0,0,0,0,0v0Z"/><path class="cls-1" d="M7.54.69h0v0h0v0Z"/><path class="cls-1" d="M7.54.65s0,0,0,0,0,0,0,0,0,0,0,0v0h0s0,0,0,0h0v0A.11.11,0,0,0,7.54.65Z"/><path class="cls-1" d="M7.59.49h0Z"/><path class="cls-1" d="M7.58.51a0,0,0,0,1,0,0h0s0,0,0,0h0l0,0Z"/><path class="cls-1" d="M7.56.58v0h0S7.56.58,7.56.58Z"/><polygon class="cls-1" points="7.53 0.73 7.52 0.72 7.53 0.74 7.53 0.73"/><polygon class="cls-1" points="7.53 0.76 7.52 0.76 7.53 0.77 7.53 0.76"/><path class="cls-1" d="M7.65,2.73h0Z"/><path class="cls-1" d="M7.65,2.67h0Z"/><path class="cls-1" d="M7.53,1.62s0,0,0,0h0A0,0,0,0,1,7.53,1.62Z"/><polygon class="cls-1" points="7.6 2.21 7.6 2.2 7.59 2.19 7.6 2.21"/><path class="cls-1" d="M7.64,2.21v0Z"/><path class="cls-1" d="M7.66,3h0S7.67,3,7.66,3Z"/><path class="cls-1" d="M7.53,1.12v0S7.54,1.12,7.53,1.12Z"/><path class="cls-1" d="M7.54,2.71h0Z"/><path class="cls-1" d="M7.53,1.17h0v0A0,0,0,0,0,7.53,1.17Z"/><path class="cls-1" d="M7.68,4h0Z"/><path class="cls-1" d="M8,4.14H8Z"/><path class="cls-1" d="M7.53.9Z"/><path class="cls-1" d="M7.57.87h0Z"/><path class="cls-1" d="M7.59,1.25h0Z"/><path class="cls-1" d="M7.53.89h0Z"/><path class="cls-1" d="M7.53.89h0S7.52.89,7.53.89Z"/><path class="cls-1" d="M7.53.91h0Z"/><path class="cls-1" d="M7.63,3.57h0S7.63,3.57,7.63,3.57Z"/><polygon class="cls-1" points="7.64 1.81 7.64 1.81 7.64 1.81 7.64 1.81"/><path class="cls-1" d="M7.65,1.84s0,0,0,0h0Z"/><path class="cls-1" d="M7.66,2.87v0s0,0,0,0,0-.07,0-.08h0s0,0,0,0,0,0,0,0v0h0v0h0l0,0s0,0,0,0v0s0,0,0,0,0,0,0-.06v0s0,0,0,0,0,0,0,0a0,0,0,0,0,0,0s0,0,0,0h0s0,0,0,0,0,0,0,0,0,0,0,0a.11.11,0,0,0,0-.07s0,0,0,0h0s0,0,0,0,0,0,0-.06h0l0-.05v0s0,0,0,0h0v0h0s0,0,0,0h0v0a.24.24,0,0,1-.05-.1h0s0,0,0,.06a0,0,0,0,1,0,0v0s0,0,0,0,0,0,0,0,0,0,0,0,0,0,0-.05h0s0,0,0,0h0s0-.1,0-.1h0L7.57,1.8s.06,0,.07,0a0,0,0,0,0,0,0h0l0,0s0,0,0,0h0l0,0h0s0,0,0,0h0s0,0,0-.07,0,0,0,0-.07,0-.08-.07h0v0l.08.08s0,0,0,0,0,0,0,0v0s0,0,0,0l0,.05s0,0,0-.06h0s0,0,0,0h0s0,0,0-.05,0,0,0,0a.15.15,0,0,1-.09,0l0,0s0,0,0,0h0s0,0,0,0,0,0,0,0,0,0,0,0,0,0,0,0h0V1.16s0,0,0,0v0s0,0,0,0,0,0,0,0,0,0,0,0,0,0-.05-.06,0,0,0,0,0,0,0-.08,0,0,0,0,0,0,0,0V1a0,0,0,0,1,0,0s0-.09,0-.12,0,0,0,0h0s0,0,0,0a.08.08,0,0,1,0-.06h0s0,0,0,0,0,0,0,0v0s0,0,0-.06l0,0s0,.05,0,0,0,0,0,0,0,0,0,0h0s0,0,0,0,0,0,0,0h0s0,0,0,0V1a.06.06,0,0,0,0,0s0,0,0,0v0h0s0,.07,0,.11a.09.09,0,0,1,0,0h0s0,0,0,0,0,.07,0,.1h0a.21.21,0,0,0,0,.06h0s0,0,0,.08a0,0,0,0,1,0,0s0,.08,0,.11a0,0,0,0,1,0,0h0v0h0s0,0,0,0,0,0,0,.05h0a0,0,0,0,0,0,0h0l0,0s0,0,0,0,0,0,0,.05h0s0,0,0,0,0,.11,0,.17,0,0,0,0h0s0,0,0,.06h0s0,0,0,0h0s0,0,0,0,0,0,0,0,0,0,0,0,0,.06,0,.06,0,0,0,0v0h0s0,0,0,0h0s0,0,0,.06h0s0,0,0,.06h0s0,0,0,.05h0s0,0,0,0,0,0,0,0,0,.05,0,.07,0,0,0,0,0,.05,0,.07h0s0,0,0,.05,0,.09,0,.09v0h0a.05.05,0,0,0,0,0h0a.08.08,0,0,0,0,.08h0s0,.06,0,.1h0s0,.11,0,.12v0s0,0,0,0,0,0,0,0h0s0,0,0,0v.22h0v0s0,0,0,0,0,0,0,0,0,0,0,0h0s0,0,0,0h0s0,0,0,0v0h0s0,0,0,0,0,.12,0,.13a.11.11,0,0,1,0,.06s0,0,0,0,0,0,0,.05,0,.06,0,0,0,0,0,0a.69.69,0,0,1,0,.16h0s0,0,0,0l0,0s0,0,0,0,0,0,0,0,.2,0,.3,0,0,0,0,0,0,0,0,0l0,0s0,0,0,0h0s0,0,0-.07S8,4,8,4.06s0,0,0,0H7.78s0,0,0,0-.09,0-.1,0,0,0,0,0h0s0,0,0,0h0a.21.21,0,0,0,0-.07h0s0,0,0-.07h0a.05.05,0,0,1,0,0s0,0,0,0,0,0,0,0h0a0,0,0,0,1,0,0s0,0,0,0,0-.07,0-.09,0,0,0,0,0,0,0,0,0,0,0-.06h0s0,0,0,0,0,0,0,0v0s0,0,0-.07v0s0,0,0,0,0,0,0,.06,0,0,0,0,0,0,0-.06h0v0h0s0,0,0-.06,0,0,0,0,0,0,0-.08,0,0,0,0v0s0,0,0,0,0,0,0,0h0s0,0,0,0l0,0v0h0a.06.06,0,0,1,0,0s0,0,0,0,0,0,0,0,0,0,0,0h0s0,0,0,0h0l0,0h0v0s0,0,0,0v0h0s0,0,0-.07h0s0,0,0-.07l0,0s0,0,0,0,0,0,0,0,0,0,0-.06S7.65,2.86,7.66,2.87Zm0-.28s0,0,0,0S7.64,2.6,7.65,2.59Zm0-.42s0,0,0,0A0,0,0,0,1,7.62,2.16ZM7.54,1h0S7.53,1,7.54,1Zm0,0h0a0,0,0,0,1,0,0A0,0,0,0,0,7.54,1Zm0,2.69h0S7.55,3.64,7.55,3.64Z"/><path class="cls-1" d="M7.64,2.21h0Z"/><polygon class="cls-1" points="7.66 3.04 7.66 3.04 7.66 3.04 7.66 3.04"/><path class="cls-1" d="M7.64,1.35h0Z"/><path class="cls-1" d="M7.52.83v0h0Z"/><path class="cls-1" d="M7.59.69h0S7.59.7,7.59.69Z"/><path class="cls-1" d="M7.56.81s0,0,0,0h0S7.56.8,7.56.81Z"/><path class="cls-1" d="M7.56.79h0S7.56.78,7.56.79Z"/><path class="cls-1" d="M7.53.93h0S7.54,1,7.53.93Z"/><polygon class="cls-1" points="7.59 0.8 7.58 0.81 7.59 0.81 7.59 0.8"/><path class="cls-1" d="M7.58.89v0h0A.19.19,0,0,0,7.58.89Z"/><path class="cls-1" d="M7.58.87h0Z"/><polygon class="cls-1" points="7.6 0.83 7.59 0.83 7.59 0.84 7.6 0.83"/><path class="cls-1" d="M7.58,1.08v0a0,0,0,0,0,0,0Z"/><path class="cls-1" d="M7.62,1h0Z"/><path class="cls-1" d="M7.62,1.08s0,0,0,0S7.62,1.06,7.62,1.08Z"/><polygon class="cls-1" points="7.6 1.38 7.6 1.37 7.57 1.37 7.6 1.38"/><path class="cls-1" d="M7.66,1.64s0,0,0,0,0,0,0,0S7.64,1.64,7.66,1.64Z"/><path class="cls-1" d="M7.64,1.62h0Z"/><polygon class="cls-1" points="8.05 4.16 8.07 4.16 8.06 4.15 8.05 4.16"/><polygon class="cls-1" points="8.08 4.14 8.08 4.16 8.09 4.14 8.08 4.14"/><path class="cls-1" d="M7.68,2.55h0Z"/><polygon class="cls-1" points="7.67 2.75 7.67 2.75 7.65 2.75 7.67 2.75"/><path class="cls-1" d="M7.69,2.92v0S7.67,2.92,7.69,2.92Z"/><path class="cls-1" d="M9,.09H9Z"/><polygon class="cls-1" points="9.04 0.19 9.04 0.19 9.05 0.21 9.04 0.19"/><path class="cls-1" d="M9,.29s0,0,0,0H9A.18.18,0,0,1,9,.29Z"/><path class="cls-1" d="M9,.33s0,0,0,0H9Z"/><path class="cls-1" d="M9,.32Z"/><path class="cls-1" d="M9,.36H9S9,.37,9,.36Z"/><path class="cls-1" d="M9,.38H9S9,.37,9,.38Z"/><path class="cls-1" d="M9,.36H9s0,0,0,0S9,.36,9,.36Z"/><path class="cls-1" d="M9,.35s0,0,0,0S9,.32,9,.35Z"/><path class="cls-1" d="M9,.29h0S9,.29,9,.29Z"/><path class="cls-1" d="M9,.44H9Z"/><path class="cls-1" d="M9,.44H9S9,.44,9,.44Z"/><polygon class="cls-1" points="9.02 0.38 9.01 0.36 9.02 0.39 9.02 0.38"/><polygon class="cls-1" points="8.96 0.5 8.95 0.49 8.96 0.5 8.96 0.5"/><path class="cls-1" d="M9,.53h0v0A0,0,0,0,1,9,.53Z"/><path class="cls-1" d="M9,.57H9Z"/><path class="cls-1" d="M9,.48H9Z"/><path class="cls-1" d="M9,.48H9Z"/><path class="cls-1" d="M9,.48H9Z"/><path class="cls-1" d="M9,.42s0,0,0,0Z"/><path class="cls-1" d="M9,.47H9Z"/><polygon class="cls-1" points="9 0.48 9 0.47 9 0.48 9 0.48"/><path class="cls-1" d="M9,.55a0,0,0,0,1,0,0v0Z"/><path class="cls-1" d="M9,.52H9Z"/><polygon class="cls-1" points="8.96 0.65 8.97 0.65 8.96 0.65 8.96 0.65"/><path class="cls-1" d="M9,.54a0,0,0,0,0,0,0,.08.08,0,0,1,0,0Z"/><path class="cls-1" d="M9,.59H9Z"/><path class="cls-1" d="M9,.52H9Z"/><path class="cls-1" d="M9,.52H9Z"/><path class="cls-1" d="M9,.68a0,0,0,0,1,0,0s0,0-.06,0v0s0,0,0,0,0,0,0,0,0,0,0,0v0Z"/><path class="cls-1" d="M9,.62H9l0,0H9v0Z"/><path class="cls-1" d="M9,.58s0,0,0,0,0,0,0,0,0,0,0,0a.07.07,0,0,1,0,0H9v0A.09.09,0,0,0,9,.58Z"/><path class="cls-1" d="M9,.45H9Z"/><path class="cls-1" d="M9,.46s0,0,0,0H9s0,0,0,0H9l0,0Z"/><path class="cls-1" d="M9,.52v0H9S9,.53,9,.52Z"/><polygon class="cls-1" points="8.96 0.65 8.95 0.65 8.96 0.66 8.96 0.65"/><polygon class="cls-1" points="8.96 0.68 8.95 0.68 8.95 0.69 8.96 0.68"/><path class="cls-1" d="M8.86,2.44h0Z"/><path class="cls-1" d="M8.87,2.39h0Z"/><path class="cls-1" d="M8.86,1.44s0,0,0,0h0A0,0,0,0,1,8.86,1.44Z"/><polygon class="cls-1" points="8.86 1.97 8.87 1.97 8.86 1.96 8.86 1.97"/><path class="cls-1" d="M8.91,2h0Z"/><path class="cls-1" d="M8.84,2.72h0S8.84,2.72,8.84,2.72Z"/><path class="cls-1" d="M8.92,1V1S8.93,1,8.92,1Z"/><path class="cls-1" d="M8.75,2.41h0Z"/><path class="cls-1" d="M8.91,1h0a.06.06,0,0,1,0,0A0,0,0,0,0,8.91,1Z"/><path class="cls-1" d="M8.7,3.73h0Z"/><path class="cls-1" d="M8.56,4h0A0,0,0,0,0,8.56,4Z"/><path class="cls-1" d="M8.94.8Z"/><path class="cls-1" d="M9,.78H9Z"/><path class="cls-1" d="M9,1.12H9Z"/><path class="cls-1" d="M8.94.8h0Z"/><path class="cls-1" d="M8.94.8h0Z"/><path class="cls-1" d="M8.94.81h0Z"/><path class="cls-1" d="M8.74,3.18h0S8.74,3.19,8.74,3.18Z"/><polygon class="cls-1" points="8.95 1.63 8.95 1.63 8.95 1.63 8.95 1.63"/><path class="cls-1" d="M9,1.65s0,0,0,0h0Z"/><path class="cls-1" d="M8.85,2.57v0s0,0,0,0,0-.06,0-.07h0s0,0,0,0h0v0h0v0h0v0h0v0s0,0,0,0,0,0,0,0v0s0,0,0,0,0,0,0,0a0,0,0,0,0,0,0s0,0,0,0h0s0,0,0,0,0,0,0,0,0,0,0,0a.09.09,0,0,0,0-.06s0,0,0,0h0s0,0,0,0,0,0,0-.06h0a.16.16,0,0,0,0-.05V2s0,0,0,0h0V2h0s0,0,0,0h0l0,0a.21.21,0,0,1,0-.09h0s0,0,0,.05h0v0s0,0,0,0,0,0,0,0,0,0,0,0,0,0,0,0,0,0,0,0,0,0,0,0h0s0-.09,0-.1h0l-.06-.06s.06,0,.07,0a0,0,0,0,0,0,0h0l0,0s0,0,0,0H9l0,0H9s0,0,0,0H9s0,0,0-.07,0,0,0,0-.06,0-.07-.07h0v0L9,1.42s0,0,0,0,0,0,0,0v0s0,0,0,0v0a.05.05,0,0,1,0-.06H9s0,0,0,0H9s0,0,0,0,0,0,0,0H8.92l0,0s0,0,0,0H9s0,0,0,0,0,0,0,0,0,0,0,0,0,0,0,0H9s0,0,0-.07H9A0,0,0,0,1,9,1S9,1,9,1,9,1,9,1,9,1,9,1,9,1,9,1,9,1,9,1s0,0,0-.08,0,0,0,0,0,0,0,0v0a0,0,0,0,1,0,0S9,.86,9,.83s0,0,0,0H9s0,0,0,0A.07.07,0,0,1,9,.76H9s0,0,0,0,0,0,0,0H9s0,0,0-.05l0,0s0,0,0,0,0,0,0,0,0,0,0,0H9s0,0,0,0H9s0,0,0,0v0a0,0,0,0,0,0,0s0,0,0,0v0h0s0,.06,0,.1a.07.07,0,0,1,0,0h0s0,0,0,0,0,.06,0,.08h0a.17.17,0,0,0,0,.05h0s0,0,0,.07,0,0,0,0,0,.07,0,.1a0,0,0,0,1,0,0h0a.09.09,0,0,0,0,0h0s0,0,0,0,0,0,0,0h0a0,0,0,0,0,0,0h0l0,0s0,0,0,0,0,0,0,.05h0s0,0,0,0,0,.1,0,.15,0,0,0,0h0s0,0,0,.06h0s0,0,0,0h0s0,0,0,0,0,0,0,0,0,0,0,0,0,.06,0,.06,0,0,0,0a.26.26,0,0,0,0,0h0s0,0,0,0h0s0,0,0,.05h0s0,0,0,.05h0s0,0,0,0h0s0,0,0,0,0,0,0,0,0,0,0,.07,0,0,0,0,0,0,0,.06h0s0,0,0,.05,0,.08,0,.08v0h0a0,0,0,0,0,0,0h0a.07.07,0,0,0,0,.07h0s0,0,0,.09h0s0,.09,0,.11v0s0,0,0,0,0,0,0,0h0s0,0,0,0,0,.13,0,.19h0v0s0,0,0,0,0,0,0,0,0,0,0,0h0s0,0,0,0h0v0h0s0,0,0,0,0,.1,0,.11a.09.09,0,0,1,0,.06s0,0,0,0,0,0,0,0,0,.05,0,0,0,0,0,0,0,.08,0,.12h0l0,0s0,0,0,0h0c0,.08,0,.18-.06.26s0,0,0,0h0l0,0s0,0,0,0h0s0,0,.07,0,0,0,0-.07h0s0,0,0,0h0a.55.55,0,0,1,0-.11h0v0s0,0,0,0,0-.08,0-.08,0,0,0,0h0s0,0,0,0v0a.9.9,0,0,0,0-.15h0s0,0,0-.06h0a0,0,0,0,1,0,0s0,0,0,0,0,0,0,0h0a0,0,0,0,1,0,0s0,0,0,0,0-.06,0-.07,0,0,0,0,0,0,0,0,0,0,0,0h0s0,0,0,0,0,0,0,0v0s0,0,0-.06v0s0,0,0,0,0,0,0,.06,0,0,0,0,0,0,0-.05h0v0h0s0,0,0,0,0,0,0,0,0,0,0-.07,0,0,0,0l0,0s0,0,0,0,0,0,0,0h0s0,0,0,0v0h0a0,0,0,0,1,0,0s0,0,0,0,0,0,0,0,0,0,0,0h0s0,0,0,0h0v0h0s0,0,0,0,0,0,0,0v0h0s0,0,0-.07h0s0,0,0-.07h0s0,0,0,0,0,0,0,0,0,0,0-.06S8.85,2.56,8.85,2.57Zm0-.25s0,0,0,0S8.87,2.33,8.87,2.32Zm0-.38s0,0,0,0Zm0-1.06h0S8.93.88,8.94.88Zm0,0h0s0,0,0,0S8.95.86,8.94.86ZM8.65,3.24h0S8.65,3.25,8.65,3.24Z"/><path class="cls-1" d="M8.9,2h0Z"/><polygon class="cls-1" points="8.84 2.72 8.83 2.72 8.84 2.72 8.84 2.72"/><path class="cls-1" d="M9,1.21H9Z"/><path class="cls-1" d="M8.94.74h0Z"/><path class="cls-1" d="M9,.62H9S9,.63,9,.62Z"/><path class="cls-1" d="M9,.73s0,0,0,0H9S9,.72,9,.73Z"/><path class="cls-1" d="M9,.71H9S9,.7,9,.71Z"/><path class="cls-1" d="M8.94.83h0S8.95.85,8.94.83Z"/><polygon class="cls-1" points="9.02 0.72 9 0.73 9.01 0.73 9.02 0.72"/><path class="cls-1" d="M9,.8v0H9Z"/><path class="cls-1" d="M9,.78a0,0,0,0,0,0,0A0,0,0,0,0,9,.78Z"/><polygon class="cls-1" points="9.02 0.75 9.01 0.75 9.01 0.76 9.02 0.75"/><path class="cls-1" d="M9,1V1H9Z"/><path class="cls-1" d="M9,.92H9Z"/><path class="cls-1" d="M9,1S9,1,9,1,9,1,9,1Z"/><polygon class="cls-1" points="8.96 1.24 8.96 1.23 8.93 1.23 8.96 1.24"/><path class="cls-1" d="M9,1.47s0,0,0,0H9S9,1.48,9,1.47Z"/><path class="cls-1" d="M9,1.46H9Z"/><polygon class="cls-1" points="8.54 4.05 8.53 4.07 8.54 4.06 8.54 4.05"/><path class="cls-1" d="M8.55,4.08h0S8.55,4.08,8.55,4.08Z"/><path class="cls-1" d="M8.91,2.28h0Z"/><polygon class="cls-1" points="8.87 2.46 8.87 2.46 8.86 2.46 8.87 2.46"/><path class="cls-1" d="M8.87,2.62s0,0,0,0S8.85,2.62,8.87,2.62Z"/><path class="cls-1" d="M9,.11H9Z"/><polygon class="cls-1" points="9.07 0.2 9.06 0.2 9.08 0.21 9.07 0.2"/><path class="cls-1" d="M9.08.29s0,0,0,0h0S9.08.28,9.08.29Z"/><path class="cls-1" d="M9,.35s0,0,0,0H9Z"/><path class="cls-1" d="M9,.34s0,0,0,0Z"/><path class="cls-1" d="M9.06.38H9S9.05.39,9.06.38Z"/><path class="cls-1" d="M9.07.39h0Z"/><path class="cls-1" d="M9.06.37h0s0,0,0,0Z"/><path class="cls-1" d="M9.06.37s0,0,0,0S9.06.34,9.06.37Z"/><path class="cls-1" d="M9.1.3h0S9.09.3,9.1.3Z"/><path class="cls-1" d="M9.06.46h0Z"/><path class="cls-1" d="M9.07.46h0S9.08.45,9.07.46Z"/><polygon class="cls-1" points="9.09 0.39 9.07 0.37 9.09 0.4 9.09 0.39"/><polygon class="cls-1" points="9.06 0.52 9.05 0.51 9.07 0.52 9.06 0.52"/><path class="cls-1" d="M9.07.55h0l0,0A0,0,0,0,1,9.07.55Z"/><path class="cls-1" d="M9.08.59h0Z"/><path class="cls-1" d="M9.08.49h0Z"/><path class="cls-1" d="M9.08.5h0Z"/><path class="cls-1" d="M9.08.49h0Z"/><path class="cls-1" d="M9.09.43s0,0,0,0Z"/><polygon class="cls-1" points="9.09 0.48 9.09 0.47 9.08 0.47 9.09 0.48"/><polygon class="cls-1" points="9.1 0.49 9.09 0.48 9.09 0.49 9.1 0.49"/><path class="cls-1" d="M9.09.56v0a.11.11,0,0,0,0,0S9.08.55,9.09.56Z"/><path class="cls-1" d="M9.09.53h0Z"/><polygon class="cls-1" points="9.1 0.66 9.11 0.66 9.1 0.66 9.1 0.66"/><path class="cls-1" d="M9.1.56h0v0Z"/><path class="cls-1" d="M9.09.61h0Z"/><path class="cls-1" d="M9.08.54h0Z"/><polygon class="cls-1" points="9.08 0.54 9.09 0.54 9.09 0.53 9.08 0.54"/><path class="cls-1" d="M9.18.68a0,0,0,0,1,0,0s0,0-.06,0h0s0,0,0,0,0,0,0,0,0,0,0,0v0Z"/><path class="cls-1" d="M9.1.63h0v0h0v0Z"/><path class="cls-1" d="M9.1.6s0,0,0,0,0,0,0,0,0,0,0,0v0h0v0A.09.09,0,0,0,9.1.6Z"/><path class="cls-1" d="M9.13.45h0Z"/><path class="cls-1" d="M9.13.46h0s0,0,0,0h0l0,0Z"/><path class="cls-1" d="M9.12.53v0h0S9.12.53,9.12.53Z"/><polygon class="cls-1" points="9.1 0.67 9.09 0.66 9.11 0.68 9.1 0.67"/><polygon class="cls-1" points="9.1 0.7 9.09 0.7 9.1 0.7 9.1 0.7"/><path class="cls-1" d="M9.44,2.43h0Z"/><path class="cls-1" d="M9.44,2.38h0Z"/><path class="cls-1" d="M9.2,1.46s0,0,0,0h0A0,0,0,0,1,9.2,1.46Z"/><path class="cls-1" d="M9.33,2h0Z"/><path class="cls-1" d="M9.38,2h0Z"/><path class="cls-1" d="M9.49,2.71h0S9.5,2.71,9.49,2.71Z"/><path class="cls-1" d="M9.15,1V1S9.16,1,9.15,1Z"/><path class="cls-1" d="M9.33,2.42h0Z"/><path class="cls-1" d="M9.15,1.06h0V1A0,0,0,0,0,9.15,1.06Z"/><path class="cls-1" d="M9.61,3.71h0Z"/><path class="cls-1" d="M9.54,4h0Z"/><path class="cls-1" d="M9.12.82Z"/><path class="cls-1" d="M9.15.78h0Z"/><path class="cls-1" d="M9.22,1.12h0Z"/><path class="cls-1" d="M9.12.81h0Z"/><path class="cls-1" d="M9.11.81h0S9.11.81,9.11.81Z"/><path class="cls-1" d="M9.12.83h0Z"/><path class="cls-1" d="M9.51,3.18h0S9.51,3.18,9.51,3.18Z"/><polygon class="cls-1" points="9.33 1.61 9.33 1.61 9.33 1.61 9.33 1.61"/><path class="cls-1" d="M9.34,1.64s0,0,0,0h0Z"/><path class="cls-1" d="M9.46,2.55v0s0,0,0,0,0-.06,0-.06h0s0,0,0,0,0,0,0,0v0h0v0h0l0,0h0v0s0,0,0,0,0,0,0-.05v0s0,0,0,0,0,0,0,0a0,0,0,0,0,0,0s0,0,0,0h0l0,0s0,0,0,0,0,0,0,0a.09.09,0,0,0,0-.06s0,0,0,0h0s0,0,0,0,0,0,0-.06h0l0,0V2s0,0,0,0h0V2h0s0,0,0,0h0v0a.2.2,0,0,1-.06-.08h0s0,0,0,.05,0,0,0,0l0,0s0,0,0,0,0,0,0,0,0,0,0,0,0,0,0,0h0s0,0,0,0h0s0-.09,0-.09h0l-.08,0s.06,0,.07,0a0,0,0,0,0,0,0h0l0,0s0,0,0,0h0l0,0h0s0,0,0,0h0s0,0,0-.06,0,0,0,0-.07,0-.09-.05h0v0l.09.06s0,0,0,0,0,0,0,0v0s0,0,0,0l0,0s-.05,0-.05,0h0s0,0,0,0h0s0,0,0,0,0,0,0,0a.16.16,0,0,1-.09,0l0,0s0,0,0,0h0s0,0,0,0,0,0,0,0,0,0,0,0,0,0,0,0h0s0,0,0-.08,0,0,0,0V1s0,0,0,0,0,0,0,0,0,0,0,0,0,0-.06,0,0,0,0,0,0,0,0-.07,0,0,0,0,0,0,0,0v0a0,0,0,0,1,0,0s0-.08,0-.11h0s0,0,0,0a.07.07,0,0,1,0-.05h0s0,0,0,0,0,0,0,0v0s0,0,0,0v0s0,0,0,0,0,0,0,0,0,0,0,0h0s0,0,0,0h0s0,0,0,0v0a0,0,0,0,0,0,0s0,0,0,0V1h0s0,.06,0,.1a.07.07,0,0,1,0,0h0s0,0,0,0,0,.06,0,.09h0a.17.17,0,0,0,0,0h0s0,0,0,.07,0,0,0,0,0,.06,0,.1a0,0,0,0,1,0,0h0v0h0s0,0,0,0,0,0,0,0h0a0,0,0,0,0,0,0h0l0,0s0,0,0,0l0,0h0s0,0,0,0,0,.1,0,.15,0,0,0,0h0s0,0,0,.06h0s0,0,0,0,0,0,0,0,0,0,0,0,0,.06,0,.06v0a.26.26,0,0,0,0,0h0s0,0,0,0h0s0,0,0,.05h0s0,0,0,.06h0s0,0,0,0h0s0,0,0,0,0,0,0,0,0,0,0,.06,0,0,0,0,0,0,0,.06h0s0,0,0,0,0,.08,0,.08v0h0a0,0,0,0,0,0,0h0a.07.07,0,0,0,0,.07h0s0,.05,0,.09h0s0,.1,0,.11v0s0,0,0,0,0,0,0,0h0s0,0,0,0,0,.13,0,.2h0v0s0,0,0,0,0,0,0,0,0,0,0,0h0s0,0,0,0h0s0,0,0,0v0h0s0,0,0,0,0,.1,0,.12a.09.09,0,0,1,0,.05s0,0,0,0,0,0,0,.05,0,.05,0,0,0,0,0,0,0,.08,0,.12h0l0,0s0,0,0,0h0c0,.09,0,.18,0,.27s0,0,0,0h0V4s0,0,0,0h0s0,0,.06,0,0,0,0-.07h0s0,0,0,0h0a.55.55,0,0,1,0-.12h0a0,0,0,0,1,0,0s0,0,0,0,0-.08,0-.09,0,0,0,0h0a0,0,0,0,1,0,0h0s0,0,0,0v0a.9.9,0,0,0,0-.15h0s0,0,0-.06h0v0s0,0,0,0,0,0,0,0h0a0,0,0,0,1,0,0s0,0,0,0,0-.06,0-.08,0,0,0,0,0,0,0,0,0,0,0-.06h0s0,0,0,0,0,0,0,0v0s0,0,0-.06h0s0,0,0,0,0,0,0,.05,0,0,0,0,0,0,0-.05h0v0h0s0,0,0-.05,0,0,0,0,0,0,0-.08,0,0,0,0V3s0,0,0,0,0,0,0,0h0s0,0,0,0h0v0h0a0,0,0,0,1,0,0s0,0,0,0,0,0,0,0,0,0,0,0h0s0,0,0,0h0l0,0h0v0s0,0,0,0v0h0s0,0,0-.06h0s0,0,0-.07l0,0s0,0,0,0,0,0,0,0,0,0,0-.05S9.46,2.54,9.46,2.55Zm0-.25s0,0,0,0S9.42,2.31,9.42,2.3Zm-.08-.37s0,0,0,0A0,0,0,0,1,9.35,1.93Zm-.21-1h0S9.13.9,9.13.89Zm0,0h0S9.14.88,9.14.87Zm.3,2.39h0S9.44,3.26,9.44,3.26Z"/><path class="cls-1" d="M9.37,2h0Z"/><polygon class="cls-1" points="9.49 2.7 9.49 2.71 9.49 2.71 9.49 2.7"/><path class="cls-1" d="M9.28,1.2h0Z"/><path class="cls-1" d="M9.1.75h0a0,0,0,0,1,0,0Z"/><path class="cls-1" d="M9.16.62h0S9.16.63,9.16.62Z"/><path class="cls-1" d="M9.14.74s0,0,0,0h0S9.13.73,9.14.74Z"/><path class="cls-1" d="M9.14.71h0S9.14.71,9.14.71Z"/><path class="cls-1" d="M9.13.84h0S9.14.87,9.13.84Z"/><polygon class="cls-1" points="9.17 0.72 9.16 0.73 9.17 0.73 9.17 0.72"/><path class="cls-1" d="M9.17.8v0h0Z"/><path class="cls-1" d="M9.17.78h0Z"/><polygon class="cls-1" points="9.18 0.74 9.18 0.75 9.18 0.76 9.18 0.74"/><path class="cls-1" d="M9.19,1V1s0,0,0,0Z"/><path class="cls-1" d="M9.22.92h0Z"/><path class="cls-1" d="M9.23,1s0,0,0,0S9.23,1,9.23,1Z"/><polygon class="cls-1" points="9.24 1.23 9.24 1.23 9.22 1.23 9.24 1.23"/><path class="cls-1" d="M9.33,1.46s0,0,0,0,0,0,0,0S9.32,1.46,9.33,1.46Z"/><path class="cls-1" d="M9.31,1.45h0Z"/><polygon class="cls-1" points="9.53 4.07 9.52 4.08 9.53 4.07 9.53 4.07"/><polygon class="cls-1" points="9.55 4.09 9.53 4.1 9.55 4.1 9.55 4.09"/><path class="cls-1" d="M9.45,2.26h0s0,0,0,0Z"/><polygon class="cls-1" points="9.46 2.44 9.46 2.44 9.45 2.45 9.46 2.44"/><path class="cls-1" d="M9.5,2.59v0S9.48,2.6,9.5,2.59Z"/><path class="cls-1" d="M9.34,3h0Z"/><polygon class="cls-1" points="9.33 3.06 9.33 3.06 9.33 3.07 9.33 3.06"/><path class="cls-1" d="M9.32,3.06s0,0,0,0h0Z"/><path class="cls-1" d="M9.31,3h0Z"/><path class="cls-1" d="M9.31,3Z"/><path class="cls-1" d="M9.31,3h0A0,0,0,0,0,9.31,3Z"/><path class="cls-1" d="M9.31,3h0Z"/><path class="cls-1" d="M9.31,3h0Z"/><path class="cls-1" d="M9.31,3a0,0,0,0,1,0,0Z"/><path class="cls-1" d="M9.32,3.08h0Z"/><path class="cls-1" d="M9.3,3h0Z"/><path class="cls-1" d="M9.3,3h0Z"/><polygon class="cls-1" points="9.31 3.06 9.31 3.04 9.31 3.06 9.31 3.06"/><polygon class="cls-1" points="9.29 3.02 9.29 3.01 9.29 3.02 9.29 3.02"/><path class="cls-1" d="M9.29,3s0,0,0,0h0Z"/><path class="cls-1" d="M9.28,3h0Z"/><polygon class="cls-1" points="9.29 3.04 9.29 3.02 9.29 3.04 9.29 3.04"/><polygon class="cls-1" points="9.29 3.04 9.29 3.04 9.29 3.04 9.29 3.04"/><path class="cls-1" d="M9.29,3h0Z"/><path class="cls-1" d="M9.3,3a0,0,0,0,0,0,0A.21.21,0,0,1,9.3,3Z"/><polygon class="cls-1" points="9.3 3.05 9.3 3.05 9.3 3.04 9.3 3.05"/><polygon class="cls-1" points="9.29 3.05 9.3 3.05 9.29 3.05 9.29 3.05"/><path class="cls-1" d="M9.29,3h0Z"/><path class="cls-1" d="M9.29,3h0Z"/><polygon class="cls-1" points="9.27 3.04 9.27 3.04 9.27 3.04 9.27 3.04"/><polygon class="cls-1" points="9.29 3.04 9.29 3.04 9.29 3.04 9.29 3.04"/><path class="cls-1" d="M9.28,3h0Z"/><path class="cls-1" d="M9.29,3h0Z"/><polygon class="cls-1" points="9.29 3.03 9.29 3.04 9.29 3.04 9.29 3.03"/><path class="cls-1" d="M9.27,3.11s0,0,0,0a.35.35,0,0,0,0-.06h0a.06.06,0,0,1,0,0s0,0,0,0,0,0,0,0h0Z"/><path class="cls-1" d="M9.28,3h0Z"/><path class="cls-1" d="M9.28,3a.14.14,0,0,0,0,0h0s0,0,0,0h0Z"/><path class="cls-1" d="M9.3,3.09h0Z"/><path class="cls-1" d="M9.3,3.09h0a0,0,0,0,0,0,0h0v0Z"/><ellipse class="cls-1" cx="9.29" cy="3.07" rx="0.01" transform="translate(5.31 12) rotate(-84.28)"/><polygon class="cls-1" points="9.27 3.03 9.27 3.02 9.27 3.04 9.27 3.03"/><polygon class="cls-1" points="9.27 3.03 9.27 3.02 9.27 3.03 9.27 3.03"/><path class="cls-1" d="M9.05,3.16h0Z"/><path class="cls-1" d="M9.06,3.16h0Z"/><path class="cls-1" d="M9.17,3s0,0,0,0h0Z"/><polygon class="cls-1" points="9.11 3.1 9.11 3.1 9.11 3.09 9.11 3.1"/><path class="cls-1" d="M9.11,3.14h0Z"/><path class="cls-1" d="M9,3.17H9Z"/><path class="cls-1" d="M9.23,3h0Z"/><path class="cls-1" d="M9.05,3h0Z"/><path class="cls-1" d="M9.22,3h0Z"/><path class="cls-1" d="M8.89,3.16h0Z"/><path class="cls-1" d="M8.85,3h0Z"/><path class="cls-1" d="M9.25,3Z"/><path class="cls-1" d="M9.26,3.07h0Z"/><path class="cls-1" d="M9.22,3.1h0Z"/><path class="cls-1" d="M9.26,3h0Z"/><path class="cls-1" d="M9.25,3h0Z"/><polygon class="cls-1" points="9.25 3.03 9.25 3.03 9.25 3.03 9.25 3.03"/><path class="cls-1" d="M9,3.13H9Z"/><polygon class="cls-1" points="9.15 3.15 9.15 3.15 9.15 3.15 9.15 3.15"/><path class="cls-1" d="M9.15,3.15h0v0Z"/><path class="cls-1" d="M9,3.16H9s0,0,0,0,0,0,0,0H9s0,0,0,0a0,0,0,0,1,0,0h0v0s0,0,0,0h0s0,0,0,0,0,0,0,0h0s0,0,0,0a.16.16,0,0,1,0,0h0s0,0,0,0v0h0s0,0,0,0h0a.16.16,0,0,1,0,0s0,0,0,0,0,0,0,0v0h0a.12.12,0,0,1,0,0h0a.09.09,0,0,1,0,0h0a.1.1,0,0,1,0,0h0s0,0,0,0h0v0h0a.24.24,0,0,1,0-.05s0,0,0,0,0,0,0,0h0a0,0,0,0,0,0,0s0,0,0,0,0,0,0,0,0,0,0,0h0s0,0,0,0v0a.66.66,0,0,1,0,.07h0v0a.21.21,0,0,0,0,0h0s0,0,0,0a.21.21,0,0,0,0,0,.76.76,0,0,1,0-.08h0v.08h0a0,0,0,0,1,0,0h0s0,0,0,0v0s0,0,0,0,0,0,0,0h0s0,0,0,0,0,0,0,0,0-.08,0-.09v0s0,0,0,0h0s0,0,0,0h0a.19.19,0,0,1,0,0h0a.07.07,0,0,1,0,0h0s0,0,0,0v0s0,0,0,0a.18.18,0,0,1,0-.05s0,0,0,0,0,0,0,0a.33.33,0,0,1,0,0h0s0,0,0,0a0,0,0,0,0,0,0h0s0,0,0,0,0,0,0,0v0h0s0,0,0,0h0s0,0,0,0V3s0,0,0,0,0,0,0,0,0,0,0,0h0v0s0,0,0,0h0s0,0,0,0h0s0,0,0,0h0s0,0,0,0,0,0,0,0h0s0,0,0,0h0s0,0,0,0h0s0,0,0,0h0s0,0,0,0,0,0,0,0h0v0a.08.08,0,0,1,0,0v0h0s0,0,0,0,0,0,0,0a.07.07,0,0,1,0,0s0,0,0,0,0,0,0,0h0a.11.11,0,0,0,0,0s0,0,0,0,0,0,0,0,0,0,0,0h0s0,0,0,0h0s0,0,0,0h0s0,0,0,0h0s0,0,0,0V3s0,0,0,0a.06.06,0,0,1,0,0s0,0,0,0h0v0s0,0,0,0H9s0,0,0,0H9s0,0,0,0H9s0,0,0,0H9s0,0,0,0H9s0,0,0,0v0H9s0,0,0,0H9v0H9S9,3,9,3s0,0,0,0S9,3,9,3h0s0,0,0,0,0,0,0,0h0v0s0,0,0,0,0,0,0,0V3s0,0,0,0a.1.1,0,0,1,0,0V3s0,0,0,0h0s0,0,0,0,0,0,0,0a.15.15,0,0,1,0,0V3s0,0,0,0h0s0,0,0,.07,0,0,0,0,0,0,0,0h0s0,0,0,0,0,0,0,0h0v0h0s0,0,0,0h0s0,0,0,0h0s0,0,0,0,0,0,0,0h0v0s0,0,0,0,0,0,0,0,0,0,0,0,0,0,0,0,0,0,0,0H9s0,0,0,0H9s0,0,0,0H9s0,0,0,0,0,0,0,0,0,0,0,0H9v0s0,0,0,0,0,0,0,0,0,0,0,0,0,0,0,0H9s0,0,0,0,0,0,0,0H9s0,0,0,0v0H9s0,0,0,0H9s0,0,0,0H9v0a0,0,0,0,1,0,0H9a.11.11,0,0,1,0,0H9v0s0,0,0,0H9s0,0,0,0v0s0,0,0,0,0,0,0,0,0,0,0,0Zm0,0h0S9.07,3.15,9.07,3.15Zm0,0h0ZM9.24,3h0S9.24,3,9.24,3Zm0,0h0Zm-.3,0h0Z"/><path class="cls-1" d="M9.11,3.14h0Z"/><polygon class="cls-1" points="9.02 3.17 9.02 3.17 9.02 3.17 9.02 3.17"/><path class="cls-1" d="M9.2,3.15h0Z"/><polygon class="cls-1" points="9.26 3.02 9.26 3.03 9.26 3.03 9.26 3.02"/><polygon class="cls-1" points="9.28 3.1 9.28 3.1 9.28 3.09 9.28 3.1"/><path class="cls-1" d="M9.26,3.06h0S9.27,3.06,9.26,3.06Z"/><path class="cls-1" d="M9.27,3.07h0Z"/><path class="cls-1" d="M9.25,3s0,0,0,0S9.25,3,9.25,3Z"/><polygon class="cls-1" points="9.27 3.1 9.26 3.08 9.26 3.09 9.27 3.1"/><polygon class="cls-1" points="9.26 3.09 9.26 3.09 9.26 3.09 9.26 3.09"/><path class="cls-1" d="M9.26,3.09h0Z"/><polygon class="cls-1" points="9.26 3.1 9.26 3.1 9.26 3.1 9.26 3.1"/><path class="cls-1" d="M9.23,3.08h0Z"/><path class="cls-1" d="M9.24,3.12h0v0Z"/><path class="cls-1" d="M9.23,3.12h0Z"/><polygon class="cls-1" points="9.2 3.1 9.2 3.1 9.2 3.08 9.2 3.1"/><path class="cls-1" d="M9.17,3.16s0,0,0,0,0,0,0,0S9.17,3.15,9.17,3.16Z"/><path class="cls-1" d="M9.17,3.14h0Z"/><polygon class="cls-1" points="8.85 3.04 8.85 3.03 8.85 3.04 8.85 3.04"/><polygon class="cls-1" points="8.85 3.05 8.84 3.04 8.84 3.05 8.85 3.05"/><path class="cls-1" d="M9.07,3.18h0Z"/><polygon class="cls-1" points="9.05 3.17 9.05 3.17 9.05 3.16 9.05 3.17"/><path class="cls-1" d="M9,3.19H9S9,3.17,9,3.19Z"/><path class="cls-1" d="M11.09,0h0Z"/><polygon class="cls-1" points="11.07 0.06 11.07 0.06 11.06 0.07 11.07 0.06"/><path class="cls-1" d="M11,.06s0,0,0,0h0Z"/><path class="cls-1" d="M11,0h0Z"/><path class="cls-1" d="M11,0Z"/><path class="cls-1" d="M11,0h0S11,0,11,0Z"/><path class="cls-1" d="M11,0h0Z"/><path class="cls-1" d="M11,0h0Z"/><path class="cls-1" d="M11,0s0,0,0,0S11,0,11,0Z"/><path class="cls-1" d="M11,.08h0Z"/><path class="cls-1" d="M11,0h0Z"/><path class="cls-1" d="M11,0h0Z"/><polygon class="cls-1" points="11.02 0.06 11.03 0.04 11.02 0.06 11.02 0.06"/><polygon class="cls-1" points="10.99 0.01 10.99 0.01 10.99 0.02 10.99 0.01"/><path class="cls-1" d="M11,0s0,0,0,0h0Z"/><path class="cls-1" d="M11,0h0Z"/><polygon class="cls-1" points="11 0.04 10.99 0.03 10.99 0.04 11 0.04"/><polygon class="cls-1" points="10.99 0.04 10.99 0.04 10.99 0.04 10.99 0.04"/><path class="cls-1" d="M11,0h0Z"/><path class="cls-1" d="M11,0a0,0,0,0,0,0,0A.11.11,0,0,1,11,0Z"/><polygon class="cls-1" points="11 0.05 11 0.05 11 0.04 11 0.05"/><polygon class="cls-1" points="11 0.05 11 0.05 11 0.05 11 0.05"/><path class="cls-1" d="M11,0h0Z"/><path class="cls-1" d="M11,0h0Z"/><polygon class="cls-1" points="10.95 0.04 10.95 0.04 10.95 0.04 10.95 0.04"/><polygon class="cls-1" points="10.98 0.04 10.98 0.04 10.98 0.04 10.98 0.04"/><path class="cls-1" d="M11,0h0Z"/><path class="cls-1" d="M11,0h0Z"/><polygon class="cls-1" points="10.99 0.03 10.98 0.04 10.99 0.04 10.99 0.03"/><path class="cls-1" d="M10.95.11s0,0,0,0A.18.18,0,0,0,11,0h0s0,0,0,0,0,0,0,0,0,0,0,0h0Z"/><path class="cls-1" d="M11,0h0Z"/><path class="cls-1" d="M11,0a.07.07,0,0,0,0,0h0s0,0,0,0h0Z"/><path class="cls-1" d="M11,.09h0Z"/><path class="cls-1" d="M11,.09h0a0,0,0,0,0,0,0h0v0Z"/><ellipse class="cls-1" cx="10.98" cy="0.07" rx="0.01" transform="translate(8.75 10.82) rotate(-78.67)"/><polygon class="cls-1" points="10.95 0.03 10.95 0.02 10.95 0.04 10.95 0.03"/><polygon class="cls-1" points="10.95 0.03 10.95 0.02 10.94 0.03 10.95 0.03"/><path class="cls-1" d="M10.51.16h0Z"/><path class="cls-1" d="M10.52.16h0Z"/><path class="cls-1" d="M10.76,0s0,0,0,0h0Z"/><polygon class="cls-1" points="10.63 0.1 10.63 0.1 10.63 0.09 10.63 0.1"/><path class="cls-1" d="M10.62.14h0Z"/><path class="cls-1" d="M10.44.17h0Z"/><path class="cls-1" d="M10.87,0h0Z"/><path class="cls-1" d="M10.51,0h0Z"/><path class="cls-1" d="M10.85,0h0Z"/><path class="cls-1" d="M10.19.16h0Z"/><path class="cls-1" d="M10.11,0h0Z"/><path class="cls-1" d="M10.91,0Z"/><path class="cls-1" d="M10.92.07h0Z"/><path class="cls-1" d="M10.84.1h0Z"/><path class="cls-1" d="M10.92,0h0Z"/><path class="cls-1" d="M10.92,0h0Z"/><polygon class="cls-1" points="10.91 0.03 10.91 0.03 10.91 0.03 10.91 0.03"/><path class="cls-1" d="M10.32.13h0Z"/><polygon class="cls-1" points="10.71 0.15 10.71 0.15 10.71 0.15 10.71 0.15"/><path class="cls-1" d="M10.71.15h0v0Z"/><path class="cls-1" d="M10.48.16h0s0,0,0,0,0,0,0,0h0s0,0,0,0a0,0,0,0,1,0,0h0v0s0,0,0,0h0s0,0,0,0,0,0,0,0h0s0,0,0,0,0,0,0,0h0s0,0,0,0v0s0,0,0,0,0,0,0,0h0s0,0,0,0h0s0,0,0,0,0,0,0,0a.09.09,0,0,1,0,0v0h0a.06.06,0,0,1,0,0h0a0,0,0,0,1,0,0h0a0,0,0,0,1,0,0h0a.16.16,0,0,0,0,0h0v0h0s0,0,0-.05a.19.19,0,0,0,0,0s0,0,0,0h0s0,0,0,0,0,0,0,0,0,0,0,0,0,0,0,0h0s0,0,0,0v0a.33.33,0,0,1,0,.07h0v0a.11.11,0,0,0,0,0h0s0,0,0,0a.1.1,0,0,0,0,0,.4.4,0,0,1,0-.08h0l0,.08h0a0,0,0,0,1,0,0h0s0,0,0,0v0s0,0,0,0a.24.24,0,0,1,0,0h0s0,0,0,0,0,0,0,0a.64.64,0,0,1,0-.09v0s0,0,0,0h0s0,0,0,0h0a.1.1,0,0,1,0,0h0a0,0,0,0,1,0,0h0s0,0,0,0v0s0,0,0,0a.1.1,0,0,1,0-.05s0,0,0,0,0,0,0,0a.16.16,0,0,1,0,0h0s0,0,0,0a0,0,0,0,0,0,0h0s0,0,0,0,0,0,0,0v0h0s0,0,0,0h0s0,0,0,0V0s0,0,0,0,0,0,0,0,0,0,0,0h0v0s0,0,0,0h0s0,0,0,0h0s0,0,0,0h0s0,0,0,0,0,0,0,0h0s0,0,0,0h0s0,0,0,0h0s0,0,0,0h0s0,0,0,0,0,0,0,0h0v0a0,0,0,0,1,0,0v0h0s0,0,0,0,0,0,0,0a0,0,0,0,1,0,0s0,0,0,0,0,0,0,0h0s0,0,0,0,0,0,0,0,0,0,0,0,0,0,0,0h0s0,0,0,0h0s0,0,0,0h0s0,0,0,0h0s0,0,0,0V0s0,0,0,0a0,0,0,0,1,0,0s0,0,0,0h0v0s0,0,0,0h0s0,0,0,0h0s0,0,0,0h0s0,0,0,0h0s0,0,0,0h0s0,0,0,0,0,0,0,0h0s0,0,0,0h0v0h0s0,0,0,0,0,0,0,0,0,0,0,0h0s0,0,0,0,0,0,0,0h0s0,0,0,0,0,0,0,0,0,0,0,0,0,0,0,0,0,0,0,0a0,0,0,0,1,0,0V0s0,0,0,0h0s0,0-.07,0,0,0,0,0a.07.07,0,0,1,0,0V0s0,0,0,0h0a.49.49,0,0,0,0,.07s0,0,0,0,0,0,0,0h0s0,0,0,0,0,0,0,0,0,0,0,0h0v0h0s0,0,0,0h0s0,0,0,0h0s0,0,0,0,0,0,0,0h0v0s0,0,0,0,0,0,0,0,0,0,0,0,0,0,0,0,0,0,0,0h0s0,0,0,0h0s0,0,0,0h0s0,0,0,0,0,0,0,0,0,0,0,0h0v0s0,0,0,0,0,0,0,0,0,0,0,0,0,0,0,0h0s0,0,0,0,0,0,0,0h0s0,0,0,0v0h0s0,0,0,0,0,0,0,0,0,0,0,0h0v0a0,0,0,0,1,0,0h0a.06.06,0,0,1,0,0h0v0s0,0,0,0h0s0,0,0,0v0s0,0,0,0,0,0,0,0,0,0,0,0Zm.06,0h0S10.54.15,10.54.15Zm.09,0h0ZM10.9,0h0S10.89,0,10.9,0Zm0,0h0Zm-.6,0h0Z"/><path class="cls-1" d="M10.62.14h0Z"/><polygon class="cls-1" points="10.44 0.17 10.44 0.17 10.44 0.17 10.44 0.17"/><path class="cls-1" d="M10.82.15h0Z"/><polygon class="cls-1" points="10.93 0.02 10.93 0.03 10.93 0.03 10.93 0.02"/><polygon class="cls-1" points="10.96 0.1 10.96 0.1 10.96 0.09 10.96 0.1"/><path class="cls-1" d="M10.93.06h0S10.94.06,10.93.06Z"/><path class="cls-1" d="M10.94.07h0Z"/><path class="cls-1" d="M10.91,0h0S10.9,0,10.91,0Z"/><polygon class="cls-1" points="10.94 0.1 10.94 0.08 10.93 0.09 10.94 0.1"/><polygon class="cls-1" points="10.92 0.09 10.92 0.09 10.92 0.09 10.92 0.09"/><path class="cls-1" d="M10.92.09h0Z"/><polygon class="cls-1" points="10.93 0.1 10.93 0.1 10.93 0.1 10.93 0.1"/><path class="cls-1" d="M10.87.08h0Z"/><path class="cls-1" d="M10.89.12h0v0Z"/><path class="cls-1" d="M10.87.12s0,0,0,0S10.88.13,10.87.12Z"/><polygon class="cls-1" points="10.81 0.1 10.81 0.1 10.81 0.08 10.81 0.1"/><path class="cls-1" d="M10.75.16s0,0,0,0,0,0,0,0S10.75.15,10.75.16Z"/><path class="cls-1" d="M10.75.14h0Z"/><polygon class="cls-1" points="10.1 0.04 10.1 0.03 10.1 0.04 10.1 0.04"/><polygon class="cls-1" points="10.1 0.05 10.1 0.04 10.09 0.05 10.1 0.05"/><path class="cls-1" d="M10.55.18h0Z"/><polygon class="cls-1" points="10.5 0.17 10.51 0.17 10.5 0.16 10.5 0.17"/><path class="cls-1" d="M10.47.19h0S10.47.17,10.47.19Z"/><path class="cls-1" d="M10.53.1h0Z"/><polygon class="cls-1" points="10.56 0.2 10.55 0.2 10.56 0.21 10.56 0.2"/><path class="cls-1" d="M10.56.29s0,0,0,0h0S10.56.28,10.56.29Z"/><path class="cls-1" d="M10.52.34s0,0,0,0h0Z"/><path class="cls-1" d="M10.52.33s0,0,0,0Z"/><path class="cls-1" d="M10.52.37h0S10.52.38,10.52.37Z"/><path class="cls-1" d="M10.53.39h0Z"/><path class="cls-1" d="M10.53.36h0s0,0,0,0S10.53.37,10.53.36Z"/><path class="cls-1" d="M10.53.36s0,0,0,0S10.53.33,10.53.36Z"/><path class="cls-1" d="M10.57.29h0S10.57.3,10.57.29Z"/><path class="cls-1" d="M10.51.45h0Z"/><path class="cls-1" d="M10.53.45h0S10.53.45,10.53.45Z"/><polygon class="cls-1" points="10.55 0.39 10.54 0.36 10.55 0.39 10.55 0.39"/><polygon class="cls-1" points="10.51 0.51 10.5 0.5 10.52 0.51 10.51 0.51"/><path class="cls-1" d="M10.51.54h0v0A0,0,0,0,1,10.51.54Z"/><path class="cls-1" d="M10.52.58h0Z"/><path class="cls-1" d="M10.53.48h0Z"/><path class="cls-1" d="M10.53.49h0Z"/><path class="cls-1" d="M10.53.48h0Z"/><path class="cls-1" d="M10.55.42s0,0,0,0Z"/><path class="cls-1" d="M10.55.48h0Z"/><polygon class="cls-1" points="10.55 0.48 10.55 0.48 10.54 0.48 10.55 0.48"/><path class="cls-1" d="M10.53.56a0,0,0,0,1,0,0v0Z"/><path class="cls-1" d="M10.53.52h0Z"/><polygon class="cls-1" points="10.53 0.65 10.54 0.65 10.53 0.65 10.53 0.65"/><path class="cls-1" d="M10.54.55a0,0,0,0,0,0,0v0Z"/><path class="cls-1" d="M10.52.6h0Z"/><path class="cls-1" d="M10.53.53h0Z"/><polygon class="cls-1" points="10.53 0.53 10.54 0.54 10.53 0.53 10.53 0.53"/><path class="cls-1" d="M10.6.68a0,0,0,0,1,0,0s0,0-.06,0v0s0,0,0,0,0,0,0,0,0,0,0,0v0Z"/><path class="cls-1" d="M10.54.63h0v0h0v0Z"/><path class="cls-1" d="M10.54.59s0,0,0,0,0,0,0,0,0,0,0,0v0h0v0A.09.09,0,0,0,10.54.59Z"/><path class="cls-1" d="M10.59.45h0Z"/><path class="cls-1" d="M10.58.46h0s0,0,0,0h0l0,0Z"/><path class="cls-1" d="M10.56.53v0h0S10.57.53,10.56.53Z"/><polygon class="cls-1" points="10.53 0.66 10.52 0.65 10.53 0.67 10.53 0.66"/><polygon class="cls-1" points="10.53 0.69 10.52 0.69 10.53 0.69 10.53 0.69"/><path class="cls-1" d="M10.65,2.44h0Z"/><path class="cls-1" d="M10.65,2.39h0Z"/><path class="cls-1" d="M10.53,1.45s0,0,0,0h0A0,0,0,0,1,10.53,1.45Z"/><polygon class="cls-1" points="10.6 1.97 10.6 1.97 10.59 1.96 10.6 1.97"/><path class="cls-1" d="M10.64,2h0Z"/><path class="cls-1" d="M10.66,2.71h0S10.67,2.71,10.66,2.71Z"/><path class="cls-1" d="M10.53,1V1S10.54,1,10.53,1Z"/><path class="cls-1" d="M10.54,2.42h0Z"/><path class="cls-1" d="M10.53,1.05h0a.06.06,0,0,1,0,0A0,0,0,0,0,10.53,1.05Z"/><path class="cls-1" d="M10.66,3.72h0Z"/><path class="cls-1" d="M10.55,4h0A0,0,0,0,0,10.55,4Z"/><path class="cls-1" d="M10.53.81Z"/><path class="cls-1" d="M10.57.78h0Z"/><path class="cls-1" d="M10.59,1.12h0Z"/><path class="cls-1" d="M10.53.8h0Z"/><path class="cls-1" d="M10.53.8h0S10.52.8,10.53.8Z"/><path class="cls-1" d="M10.53.82h0Z"/><path class="cls-1" d="M10.63,3.18h0S10.63,3.19,10.63,3.18Z"/><polygon class="cls-1" points="10.64 1.62 10.64 1.62 10.64 1.62 10.64 1.62"/><path class="cls-1" d="M10.65,1.64s0,0,0,0h0Z"/><path class="cls-1" d="M10.66,2.56v0s0,0,0,0,0-.06,0-.07h0s0,0,0,0h0v0h0v0h0l0,0h0v0s0,0,0,0,0,0,0-.05v0s0,0,0,0,0,0,0,0a0,0,0,0,0,0,0s0,0,0,0h0l0,0s0,0,0,0,0,0,0,0a.09.09,0,0,0,0-.06s0,0,0,0h0s0,0,0,0,0,0,0-.06h0l0,0V2s0,0,0,0h0V2h.06v0a.2.2,0,0,1-.05-.09h0s0,0,0,.05h0v0s0,0,0,0,0,0,0,0,0,0,0,0,0,0,0,0h0s0,0,0,0h0s0-.09,0-.09h0l-.07-.05s.06,0,.07,0a0,0,0,0,0,0,0h0l0,0s0,0,0,0h0l0,0h0s0,0,0,0h0s0,0,0-.06,0,0,0,0-.07,0-.08-.06h0v0l.08.07s0,0,0,0,0,0,0,0v0s0,0,0,0l0,0a.05.05,0,0,1,0-.06h0s0,0,0,0h0s0,0,0,0,0,0,0,0h-.09l0,0s0,0,0,0h0s0,0,0,0,0,0,0,0,0,0,0,0,0,0,0,0h0s0,0,0-.08,0,0,0,0V1s0,0,0,0,0,0,0,0,0,0,0,0,0,0-.05-.05,0,0,0,0,0,0,0-.08,0,0,0,0,0,0,0,0v0a0,0,0,0,1,0,0s0-.08,0-.11h0s0,0,0,0a.07.07,0,0,1,0-.05h0s0,0,0,0,0,0,0,0h0s0,0,0-.05l0,0s0,0,0,0,0,0,0,0,0,0,0,0h0s0,0,0,0h0s0,0,0,0v0a0,0,0,0,0,0,0s0,0,0,0V1h0s0,.06,0,.1a.07.07,0,0,1,0,0h0s0,0,0,0,0,.06,0,.09h0a.17.17,0,0,0,0,.05h0s0,0,0,.07,0,0,0,0,0,.07,0,.1a0,0,0,0,1,0,0h0v0h0s0,0,0,0,0,0,0,0h0a0,0,0,0,0,0,0h0l0,0s0,0,0,0,0,0,0,0h0s0,0,0,0,0,.1,0,.15,0,0,0,0h0s0,0,0,.06h0s0,0,0,0h0s0,0,0,0,0,0,0,0,0,0,0,0,0,.06,0,.06,0,0,0,0a.25.25,0,0,0,0,0h0s0,0,0,0h0s0,0,0,.05h0s0,0,0,.05h0s0,0,0,0h0s0,0,0,0,0,0,0,0,0,0,0,.07,0,0,0,0,0,0,0,.06h0s0,0,0,0,0,.08,0,.08v0h0a0,0,0,0,0,0,0h0a.07.07,0,0,0,0,.07h0s0,.05,0,.09h0s0,.1,0,.11v0s0,0,0,0,0,0,0,0h0s0,0,0,0,0,.13,0,.2h0v0s0,0,0,0,0,0,0,0,0,0,0,0h0s0,0,0,0h0s0,0,0,0v0h0s0,0,0,0,0,.1,0,.11a.09.09,0,0,1,0,.05s0,0,0,0,0,0,0,0,0,.05,0,0,0,0,0,0,0,.08,0,.12h0l0,0s0,0,0,0h0c0,.09,0,.18,0,.27s0,0,0,0h0l0,0s0,0,0,0h0s0,0,.07,0,0,0,0-.07h0s0,0,0,0h0a.54.54,0,0,1,0-.12h0v0s0,0,0,0,0-.08,0-.09,0,0,0,0h0l0,0h0s0,0,0,0v0a.88.88,0,0,0,0-.15h0s0,0,0-.06h0a0,0,0,0,1,0,0s0,0,0,0,0,0,0,0h0a0,0,0,0,1,0,0s0,0,0,0,0-.06,0-.08,0,0,0,0,0,0,0,0,0,0,0-.05h0s0,0,0,0,0,0,0,0v0s0,0,0-.06v0s0,0,0,0,0,0,0,.05,0,0,0,0,0,0,0-.05h0v0h0s0,0,0,0,0,0,0,0,0,0,0-.07,0,0,0,0V3s0,0,0,0,0,0,0,0h0s0,0,0,0h0v0h0a0,0,0,0,1,0,0s0,0,0,0,0,0,0,0,0,0,0,0h0s0,0,0,0h0l0,0h0v0s0,0,0,0v0h0s0,0,0-.07h0s0,0,0-.07h0s0,0,0,0,0,0,0,0,0,0,0-.05S10.65,2.55,10.66,2.56Zm0-.25s0,0,0,0S10.64,2.32,10.65,2.31Zm0-.38s0,0,0,0A0,0,0,0,1,10.62,1.93Zm-.08-1h0S10.53.89,10.54.88Zm0,0h0s0,0,0,0S10.54.87,10.54.86Zm0,2.39h0S10.55,3.25,10.55,3.25Z"/><path class="cls-1" d="M10.64,2h0Z"/><polygon class="cls-1" points="10.66 2.71 10.66 2.71 10.66 2.71 10.66 2.71"/><path class="cls-1" d="M10.64,1.21h0Z"/><path class="cls-1" d="M10.52.74h0Z"/><path class="cls-1" d="M10.59.62h0S10.59.63,10.59.62Z"/><path class="cls-1" d="M10.56.73s0,0,0,0h0S10.56.72,10.56.73Z"/><path class="cls-1" d="M10.56.71h0S10.56.7,10.56.71Z"/><path class="cls-1" d="M10.53.83h0S10.54.86,10.53.83Z"/><polygon class="cls-1" points="10.59 0.72 10.58 0.73 10.59 0.73 10.59 0.72"/><path class="cls-1" d="M10.58.8v0h0S10.58.8,10.58.8Z"/><path class="cls-1" d="M10.58.78h0Z"/><polygon class="cls-1" points="10.6 0.74 10.59 0.75 10.59 0.76 10.6 0.74"/><path class="cls-1" d="M10.58,1V1h0Z"/><path class="cls-1" d="M10.62.92h0Z"/><path class="cls-1" d="M10.62,1s0,0,0,0S10.62,1,10.62,1Z"/><polygon class="cls-1" points="10.6 1.23 10.6 1.23 10.57 1.23 10.6 1.23"/><path class="cls-1" d="M10.66,1.47s0,0,0,0,0,0,0,0S10.64,1.47,10.66,1.47Z"/><path class="cls-1" d="M10.64,1.45h0Z"/><polygon class="cls-1" points="10.53 4.06 10.53 4.07 10.54 4.07 10.53 4.06"/><polygon class="cls-1" points="10.55 4.08 10.54 4.09 10.55 4.1 10.55 4.08"/><path class="cls-1" d="M10.68,2.27h0Z"/><polygon class="cls-1" points="10.67 2.45 10.67 2.45 10.65 2.46 10.67 2.45"/><path class="cls-1" d="M10.69,2.6s0,0,0,0S10.67,2.61,10.69,2.6Z"/></g></g></svg>